<svg xmlns="http://www.w3.org/2000/svg" xmlns:xlink="http://www.w3.org/1999/xlink" width="84" height="84" viewBox="0 0 84 84">
  <defs>
    <rect id="contacts-a" width="64" height="64" rx="32"/>
    <filter id="contacts-b" width="154.7%" height="154.7%" x="-27.3%" y="-19.5%" filterUnits="objectBoundingBox">
      <feOffset dy="5" in="SourceAlpha" result="shadowOffsetOuter1"/>
      <feGaussianBlur in="shadowOffsetOuter1" result="shadowBlurOuter1" stdDeviation="5"/>
      <feColorMatrix in="shadowBlurOuter1" values="0 0 0 0 0   0 0 0 0 0   0 0 0 0 0  0 0 0 0.15 0"/>
    </filter>
    <path id="contacts-d" d="M13.0100729,11.7732667 L13.0100729,3.50593379 C13.0100729,3.22485946 12.7914702,3 12.5182169,3 C12.2449636,3 12.0263609,3.22485946 12.0263609,3.50593379 L12.0263609,11.7732667 C10.8859837,12.0093691 10.0225032,13.0474703 10.0225032,14.2916927 C10.0225032,15.5359151 10.8859837,16.5740162 12.0263609,16.8101187 L12.0263609,20.4903186 C12.0263609,20.7713929 12.2449636,20.9962523 12.5182169,20.9962523 C12.7914702,20.9962523 13.0100729,20.7713929 13.0100729,20.4903186 L13.0100729,16.8101187 C14.1504501,16.5740162 15.0139306,15.5359151 15.0139306,14.2916927 C15.0139306,13.051218 14.1540934,12.0093691 13.0100729,11.7732667 Z M12.5182169,15.8469706 C11.6838834,15.8469706 11.0062152,15.1499063 11.0062152,14.2916927 C11.0062152,13.4334791 11.6838834,12.7364147 12.5182169,12.7364147 C13.3525504,12.7364147 14.0302186,13.4334791 14.0302186,14.2916927 C14.0302186,15.1499063 13.3525504,15.8469706 12.5182169,15.8469706 Z M6.98756965,7.53091818 C8.12794685,7.76702061 8.99142735,8.80137414 8.99142735,10.0455965 C8.99142735,11.2898189 8.12794685,12.32792 6.98756965,12.5640225 L6.98756965,20.4903186 C6.98756965,20.7713929 6.768967,20.9962523 6.49571367,20.9962523 C6.22246035,20.9962523 6.00385769,20.7713929 6.00385769,20.4903186 L6.00385769,12.5677701 C4.8634805,12.3316677 4,11.2935665 4,10.0493442 C4,8.8051218 4.8634805,7.76702061 6.00385769,7.53091818 L6.00385769,3.50593379 C6.00385769,3.22485946 6.22246035,3 6.49571367,3 C6.768967,3 6.98756965,3.22485946 6.98756965,3.50593379 L6.98756965,7.53091818 Z M6.49571367,11.6046221 C7.32640377,11.6046221 8.00771539,10.9075578 8.00771539,10.0493442 C8.00771539,9.19113054 7.33004715,8.49406621 6.49571367,8.49406621 C5.6613802,8.49406621 4.98371196,9.19113054 4.98371196,10.0493442 C4.98371196,10.9075578 5.6613802,11.6046221 6.49571367,11.6046221 Z M18.9961423,7.53091818 C20.1401629,7.76702061 21,8.80137414 21,10.0455965 C21,11.2898189 20.1365195,12.32792 18.9961423,12.5640225 L18.9961423,20.4940662 C18.9961423,20.7751405 18.7775396,21 18.5042863,21 C18.231033,21 18.0124303,20.7751405 18.0124303,20.4940662 L18.0124303,12.5677701 C16.8720532,12.3316677 16.0085727,11.2935665 16.0085727,10.0493442 C16.0085727,8.8051218 16.8720532,7.76702061 18.0124303,7.53091818 L18.0124303,3.50593379 C18.0124303,3.22485946 18.231033,3 18.5042863,3 C18.7775396,3 18.9961423,3.22485946 18.9961423,3.50593379 L18.9961423,7.53091818 Z M18.5042863,11.6046221 C19.3386198,11.6046221 20.016288,10.9075578 20.016288,10.0493442 C20.016288,9.19113054 19.3386198,8.49406621 18.5042863,8.49406621 C17.6699529,8.49406621 16.9922846,9.19113054 16.9922846,10.0493442 C16.9922846,10.9075578 17.6699529,11.6046221 18.5042863,11.6046221 Z"/>
  </defs>
  <g fill="none" fill-rule="evenodd" transform="translate(10 5)">
    <mask id="contacts-c" fill="#fff">
      <use xlink:href="#contacts-a"/>
    </mask>
    <use fill="#000" filter="url(#contacts-b)" xlink:href="#contacts-a"/>
    <use fill="#FFF" xlink:href="#contacts-a"/>
    <g fill="#44314D" mask="url(#contacts-c)">
      <rect width="64" height="64"/>
    </g>
    <g mask="url(#contacts-c)">
      <g transform="translate(20 20)">
        <rect width="24" height="24"/>
        <mask id="contacts-e" fill="#fff">
          <use xlink:href="#contacts-d"/>
        </mask>
        <use fill="#000" fill-rule="nonzero" xlink:href="#contacts-d"/>
        <g mask="url(#contacts-e)">
          <rect width="24" height="24" fill="#FFF"/>
        </g>
      </g>
    </g>
  </g>
</svg>
