<?xml version="1.0" encoding="UTF-8"?>
<svg width="165px" height="80px" viewBox="0 0 165 80" version="1.1" xmlns="http://www.w3.org/2000/svg" xmlns:xlink="http://www.w3.org/1999/xlink">
    <!-- Generator: Sketch 42 (36781) - http://www.bohemiancoding.com/sketch -->
    <title>Logo/Main</title>
    <desc>Created with Sketch.</desc>
    <defs></defs>
    <g id="Symbols" stroke="none" stroke-width="1" fill="none" fill-rule="evenodd" opacity="0.5">
        <g id="Menu/Footer" transform="translate(-135.000000, -60.000000)" fill="#FFFFFF">
            <g id="Footer">
                <g id="Logo/Main" transform="translate(135.000000, 60.000000)">
                    <path d="M81.6024097,35.5689129 C81.6024097,40.6620316 90.2358669,39.0264366 90.2358669,42.9187386 C90.2358669,44.5543336 88.517457,45.071927 86.5091947,45.071927 C84.852896,45.071927 83.1965972,44.678556 81.6645209,43.746888 L81.6645209,45.4860017 C83.0723748,46.2727436 84.7493773,46.7282257 86.6334171,46.7282257 C89.4077175,46.7489295 91.9956843,45.6723353 91.9956843,42.7945162 C91.9956843,37.5978789 83.3622271,39.1713627 83.3622271,35.5068017 C83.3622271,33.9540217 84.7907848,33.3950208 86.6955283,33.3950208 C88.1861972,33.3743171 89.8010885,33.7883918 90.9604976,34.5337262 L90.9604976,32.7946125 C89.8010885,32.132093 88.1654935,31.7387221 86.5713059,31.7387221 C83.9419317,31.7387221 81.6024097,32.9809461 81.6024097,35.5689129 Z M94.5806991,31.9871669 L94.5806991,46.4797809 L104.477084,46.4797809 L104.477084,44.8234822 L96.3198128,44.8234822 L96.3198128,39.9995121 L103.73175,39.9995121 L103.73175,38.3432133 L96.3198128,38.3432133 L96.3198128,33.6434656 L104.352862,33.6434656 L104.352862,31.9871669 L94.5806991,31.9871669 Z M109.153176,46.4797809 L107.414062,46.4797809 L107.414062,31.9871669 L113.086886,31.9871669 C115.695556,31.9871669 118.511264,33.0637611 118.511264,36.3763586 C118.511264,39.0471403 116.689335,40.2479569 114.639666,40.6206241 L119.546451,46.4797809 L117.372559,46.4797809 L112.631403,40.7655502 L109.153176,40.7655502 L109.153176,46.4797809 Z M109.153176,33.6434656 L109.153176,39.1092515 L113.1697,39.1092515 C114.908814,39.1092515 116.751447,38.5295469 116.751447,36.3763586 C116.751447,34.2024665 114.908814,33.6434656 113.1697,33.6434656 L109.153176,33.6434656 Z M126.934732,46.4797809 L125.133507,46.4797809 L119.129424,31.9871669 L120.99276,31.9871669 L126.023767,44.5336299 L131.075479,31.9871669 L132.938815,31.9871669 L126.934732,46.4797809 Z M135.068347,31.9871669 L135.068347,46.4797809 L136.807461,46.4797809 L136.807461,31.9871669 L135.068347,31.9871669 Z M139.640921,39.3369926 C139.620217,44.1609627 143.595334,46.7282257 147.239191,46.7282257 C148.791971,46.7282257 150.241233,46.3762622 151.442049,45.7551502 L151.442049,44.0160365 C150.44827,44.7199635 149.102527,45.071927 147.611858,45.071927 C144.609817,45.071927 141.380034,43.2085909 141.400738,39.3369926 C141.421442,35.1962457 144.547706,33.3950208 147.549747,33.3950208 C148.916194,33.3950208 150.28264,33.7469843 151.33853,34.4509113 L151.33853,32.7117976 C150.11701,32.0699818 148.709156,31.7387221 147.259895,31.7387221 C143.491815,31.7387221 139.661624,34.3059851 139.640921,39.3369926 Z M154.130583,31.9871669 L154.130583,46.4797809 L164.026968,46.4797809 L164.026968,44.8234822 L155.869696,44.8234822 L155.869696,39.9995121 L163.281633,39.9995121 L163.281633,38.3432133 L155.869696,38.3432133 L155.869696,33.6434656 L163.902745,33.6434656 L163.902745,31.9871669 L154.130583,31.9871669 Z" id="SERVICE"></path>
                    <path d="M45.254372,-0.000147601476 L22.6329716,13.0439852 L22.6320883,13.04369 L8.83303401e-05,26.0937269 L8.83303401e-05,61.9024354 L30.9304294,79.8067897 L53.5497688,66.7638376 L52.3749752,66.08369 L52.3749752,31.638524 L22.622372,14.4157934 L22.622372,48.8591882 L52.3729142,66.0801476 L30.9316072,78.4441328 L1.17782621,61.221107 L1.17782621,26.7768266 L22.622372,14.4116605 L22.622372,13.0522509 L53.5527131,30.9566052 L53.5527131,66.7632472 L76.1850075,53.7129151 L76.1850075,17.9042066 L45.254372,-0.000147601476 Z M69.0823648,32.6921033 L73.3154492,32.6921033 L73.3154492,47.1836162 L68.6695677,47.1836162 L68.6695677,40.5589668 L66.2949537,44.2442804 L63.7963828,44.2442804 L61.4217688,40.5383026 L61.4217688,47.1836162 L56.7758873,47.1836162 L56.7758873,32.6921033 L61.0089716,32.6921033 L65.0350686,39.0271587 L69.0823648,32.6921033 Z M34.2807993,47.1836162 L39.0506377,47.1836162 L39.0506377,32.6921033 L34.2807993,32.6921033 L34.2807993,47.1836162 Z M6.75264847,32.6921033 L6.75264847,47.1836162 L17.6964833,47.1836162 L17.6964833,43.0017712 L11.5224869,43.0017712 L11.5224869,32.6921033 L6.75264847,32.6921033 Z" id="Fill-3"></path>
                </g>
            </g>
        </g>
    </g>
</svg>