<svg xmlns="http://www.w3.org/2000/svg" xmlns:xlink="http://www.w3.org/1999/xlink" width="24" height="24" viewBox="0 0 24 24">
  <defs>
    <path id="about-a" d="M20.9638419,18.7599569 L20.2503023,16.2454252 C20.2333132,16.1937567 20.1993351,16.1420883 20.1653571,16.1076426 C19.723642,14.7470398 18.6363435,13.6964478 17.2602313,13.3347686 L17.0563628,13.3003229 C16.7505601,13.2142088 16.4107793,13.3175457 16.1899217,13.5758881 C15.442404,14.4370291 14.4910178,14.5059203 13.4886644,14.5059203 C12.4863111,14.5059203 11.5349248,14.4370291 10.7874071,13.5758881 C10.5665496,13.3175457 10.2267688,13.2142088 9.92096605,13.3003229 L9.71709757,13.3519914 C8.68076614,13.6275565 7.79733607,14.2992465 7.23669776,15.1948332 L5.09607874,15.1948332 C5.0790897,15.1948332 5.0790897,15.1948332 5.06210066,15.1776103 C5.06210066,15.1603875 5.04511162,15.1431647 5.04511162,15.1087191 L5.48682666,13.5069968 C5.87757457,12.2497309 6.62509233,11.8708288 8.08614975,11.4919268 C8.15410591,11.474704 8.20507303,11.4402583 8.23905111,11.4058127 C8.35797439,11.5091496 8.49388671,11.5952637 8.62979902,11.664155 C8.68076614,11.6986006 8.73173326,11.6986006 8.78270038,11.6986006 C8.90162366,11.6986006 9.02054694,11.6297094 9.0885031,11.5091496 C9.1734483,11.3369214 9.10549214,11.1302476 8.93560174,11.0441335 C8.15410591,10.6307858 7.5934676,9.45963402 7.5934676,8.2540366 C7.5934676,7.18622174 8.45990863,6.30785791 9.5132291,6.30785791 C9.71709757,6.30785791 9.90397701,6.34230355 10.0908564,6.39397201 C9.90397701,6.85898816 9.80204277,7.35844995 9.80204277,7.89235737 C9.80204277,10.8374596 11.5519139,13.3175457 13.6245767,13.3175457 C15.6632615,13.3175457 17.4640997,10.7857912 17.4640997,7.89235737 C17.4640997,5.73950484 15.7482067,4 13.6245767,4 C12.2824426,4 11.0932098,4.70613563 10.4136482,5.77395048 C10.1248345,5.67061356 9.81903181,5.6189451 9.5132291,5.6189451 C8.59582095,5.6189451 7.78034703,6.11840689 7.32164296,6.85898816 C7.28766488,6.82454252 7.2536868,6.8073197 7.21970872,6.79009688 C6.96487312,6.65231432 6.71003752,6.60064586 6.42122385,6.60064586 C5.46983762,6.58342304 4.70533082,7.35844995 4.70533082,8.32292788 C4.70533082,8.87405813 4.85823218,9.39074273 5.09607874,9.80409042 C4.31458291,10.0107643 3.61803228,10.320775 3.29524052,11.3713671 L3.02341588,12.3702906 C2.97244876,12.5425188 3.00642684,12.7319699 3.10836108,12.8697524 C3.21029532,13.0247578 3.39717476,13.1108719 3.5840542,13.1108719 L4.89221026,13.1108719 C4.87522122,13.1797632 4.84124314,13.2486545 4.8242541,13.3175457 L4.38253907,14.9364909 C4.31458291,15.1603875 4.36555003,15.401507 4.51845139,15.590958 C4.65436371,15.780409 4.85823218,15.883746 5.09607874,15.883746 L6.89691696,15.883746 C6.84594984,16.0043057 6.81197176,16.1248654 6.77799368,16.2454252 L6.06445401,18.7771798 C5.99649785,19.0699677 6.04746497,19.3799785 6.23434441,19.621098 C6.42122385,19.8622174 6.69304848,20 6.98186216,20 L17.1752861,20 L17.7529134,20 L20.0464338,20 C20.3352475,20 20.6240611,19.8622174 20.7939515,19.621098 C20.980831,19.3799785 21.0487871,19.0699677 20.9638419,18.7599569 Z M10.8213852,6.44564047 C10.8383742,6.42841765 10.8553632,6.41119483 10.8723523,6.37674919 C10.8893413,6.35952637 10.8893413,6.32508073 10.9063304,6.30785791 C11.4329906,5.34337998 12.452333,4.68891281 13.6245767,4.68891281 C15.034667,4.68891281 16.2238998,5.63616792 16.6316368,6.92787944 C16.0370204,7.04843918 15.4084259,6.8073197 15.034667,6.29063509 C14.9157438,6.13562971 14.7118753,6.10118407 14.5589739,6.22174381 C14.4910178,6.27341227 14.4570397,6.32508073 14.4400506,6.39397201 C14.4230616,6.41119483 14.4230616,6.42841765 14.4060726,6.44564047 C13.9303795,7.42734123 12.3334097,7.84068891 10.5155824,7.47900969 C10.5665496,7.11733046 10.6684838,6.77287406 10.8213852,6.44564047 Z M11.7727714,8.28848224 C13.1318946,8.28848224 14.2531712,7.85791173 14.8307986,7.04843918 C15.2555246,7.42734123 15.7821848,7.63401507 16.3428231,7.63401507 C16.4787354,7.63401507 16.6316368,7.61679225 16.7675491,7.58234661 C16.7845381,7.68568353 16.7845381,7.77179763 16.7845381,7.87513455 C16.7845381,10.4068891 15.3064917,12.6286329 13.6245767,12.6286329 C12.010618,12.6286329 10.6005276,10.5791173 10.4816044,8.1679225 C10.9233194,8.2540366 11.3650344,8.28848224 11.7727714,8.28848224 Z M3.71996651,12.4219591 L3.95781307,11.5608181 C4.16168155,10.8546825 4.58640755,10.6480086 5.43585954,10.4413348 C5.48682666,10.4241119 5.53779378,10.4068891 5.57177186,10.3724435 C5.65671706,10.4413348 5.72467321,10.4930032 5.82660745,10.5446717 C5.87757457,10.5791173 5.92854169,10.5791173 5.97950881,10.5791173 C6.09843209,10.5791173 6.21735537,10.510226 6.28531153,10.3896663 C6.37025673,10.2174381 6.30230057,10.0107643 6.14939921,9.92465016 C5.70768417,9.68353068 5.38489242,9.01184069 5.38489242,8.32292788 C5.38489242,7.73735199 5.84359649,7.27233584 6.42122385,7.27233584 C6.60810329,7.27233584 6.76100464,7.30678149 6.913906,7.39289559 C6.96487312,7.41011841 6.9988512,7.42734123 7.04981832,7.42734123 C6.96487312,7.68568353 6.913906,7.96124865 6.913906,8.2540366 C6.913906,9.23573735 7.23669776,10.2002153 7.74636895,10.8719053 C6.72702656,11.1302476 5.82660745,11.474704 5.23199106,12.4219591 L3.71996651,12.4219591 Z M20.2672913,19.2077503 C20.2333132,19.2421959 20.1653571,19.3110872 20.0464338,19.3110872 L17.7529134,19.3110872 L17.1752861,19.3110872 L6.98186216,19.3110872 C6.86293888,19.3110872 6.79498272,19.2421959 6.76100464,19.2077503 C6.71003752,19.138859 6.69304848,19.0355221 6.71003752,18.9666308 L7.4235772,16.452099 C7.76335799,15.2637244 8.69775518,14.3336921 9.88698797,14.0236814 L10.0908564,13.9720129 C10.1418236,13.9547901 10.2267688,13.9892357 10.2777359,14.0409042 C11.2121331,15.1259419 12.3673878,15.212056 13.4886644,15.212056 C14.609941,15.212056 15.7651958,15.1259419 16.6995929,14.0409042 C16.7505601,13.9892357 16.8185162,13.9547901 16.9034614,13.9720129 L17.1073299,14.0236814 C18.2795736,14.3336921 19.2309599,15.2637244 19.5707407,16.452099 L19.8765434,17.5199139 C19.8935324,17.5715823 19.9105215,17.606028 19.9444995,17.6404736 L20.3182584,18.949408 C20.3352475,19.0355221 20.3182584,19.138859 20.2672913,19.2077503 Z"/>
  </defs>
  <g fill="none" fill-rule="evenodd">
    <rect width="24" height="24"/>
    <mask id="about-b" fill="#fff">
      <use xlink:href="#about-a"/>
    </mask>
    <use fill="#000" fill-rule="nonzero" xlink:href="#about-a"/>
    <g fill="#000" mask="url(#about-b)">
      <rect width="24" height="24"/>
    </g>
  </g>
</svg>
