<svg xmlns="http://www.w3.org/2000/svg" xmlns:xlink="http://www.w3.org/1999/xlink" width="24" height="24" viewBox="0 0 24 24">
  <defs>
    <path id="products-a" d="M17.4,3 L7.2,3 L7.2,9.6 L17.4,9.6 L17.4,3 Z M16.8,9 L7.8,9 L7.8,3.6 L16.8,3.6 L16.8,9 Z M16.5,8.7 L16.5,3.9 L8.1,3.9 L8.1,8.7 L16.5,8.7 Z M13.32,8.1 C12.8568,7.6617 12.2682,7.2798 11.661,6.9579 C12.6714,6.7104 14.4726,6.3222 15.9,6.3 L15.9,8.1 L13.32,8.1 Z M15.9,4.5 L15.9,5.7015 C13.9329,5.7408 11.3874,6.4011 10.8267,6.5532 C9.9192,6.15 9.0861,5.8866 8.7,5.7732 L8.7,4.5 L15.9,4.5 Z M8.7,6.4011 C9.4503,6.6336 11.1651,7.2243 12.378,8.1 L8.7,8.1 L8.7,6.4011 Z M21,15.0222 L21,17.8725 L20.9976,17.8725 C20.988,18.4485 20.616,18.9333 20.1,19.1172 L20.1,20.7 C20.1,20.8659 19.9659,21 19.8,21 L19.2,21 C19.0707,21 18.9561,20.9175 18.9156,20.7948 L18.384,19.2 L5.9184,19.2 L5.3844,20.7951 C5.3436,20.9178 5.229,21 5.1,21 L4.5,21 C4.3341,21 4.2,20.8659 4.2,20.7 L4.2,19.1847 C3.5268,19.1091 3,18.543 3,17.85 C3,17.5653 3.0897,17.3016 3.2409,17.0838 C3.0843,16.8126 3,16.512 3,16.2 C3,15.8331 3.1107,15.492 3.3,15.207 L3.3,13.911 C3.3,13.0056 3.6207,12.1809 4.2033,11.589 C4.2654,11.5257 4.3311,11.4636 4.401,11.4039 C6.0237,10.0101 8.5494,10.2654 10.0308,11.9736 C10.1028,12.0567 10.1697,12.1368 10.2345,12.2139 C10.779,12.8643 11.0787,13.2222 12.6,13.2222 L19.2,13.2222 C20.1927,13.2222 21,14.0295 21,15.0222 Z M3.9,13.911 L3.9,14.6427 C3.9027,14.6409 3.906,14.6397 3.909,14.6379 C3.9729,14.6013 4.0386,14.5677 4.107,14.5389 C4.1112,14.5371 4.1157,14.5359 4.1199,14.5341 C4.1799,14.5095 4.2414,14.4888 4.3044,14.4708 C4.3257,14.4648 4.3473,14.4597 4.3689,14.4543 C4.4181,14.442 4.4682,14.4321 4.5192,14.424 C4.5408,14.4207 4.5621,14.4168 4.584,14.4141 C4.6551,14.4057 4.7268,14.4 4.8,14.4 C5.7927,14.4 6.6,15.2073 6.6,16.2 C6.6,16.2978 6.5892,16.3944 6.573,16.4907 C6.5724,16.4937 6.5727,16.497 6.5721,16.5 L19.65,16.5 C19.9275,16.5 20.1852,16.5846 20.3997,16.7283 L20.3997,15.0219 C20.3997,14.3601 19.8615,13.8219 19.1997,13.8219 L12.5997,13.8219 C10.7982,13.8219 10.3464,13.2822 9.7743,12.5988 C9.7116,12.5241 9.6465,12.4467 9.5772,12.3666 C8.3115,10.9068 6.1647,10.6788 4.7916,11.8593 C4.7349,11.9082 4.6815,11.9586 4.6311,12.0096 C4.1667,12.4818 3.9,13.1748 3.9,13.911 Z M3.8406,15.4875 L3.7941,15.5499 C3.6723,15.7374 3.6,15.96 3.6,16.2 C3.6,16.3638 3.636,16.5234 3.7026,16.6728 C3.8955,16.566 4.1142,16.5 4.35,16.5 L5.9586,16.5 C5.9853,16.401 6,16.3008 6,16.2 C6,15.5382 5.4618,15 4.8,15 C4.7106,15 4.623,15.0117 4.5381,15.0306 C4.5147,15.0357 4.4931,15.045 4.4703,15.0516 C4.4082,15.0696 4.347,15.0906 4.2888,15.1185 C4.2687,15.1281 4.2498,15.1398 4.2303,15.1503 C4.1685,15.1845 4.1088,15.2226 4.0533,15.2679 C4.0428,15.2766 4.0323,15.285 4.0221,15.2937 C3.9564,15.3513 3.8946,15.4149 3.8406,15.4875 Z M4.884,20.4 L5.2782,19.2222 L4.8,19.2222 L4.8,20.4 L4.884,20.4 Z M19.5,20.4 L19.5,19.2 L19.0164,19.2 L19.4163,20.4 L19.5,20.4 Z M19.65,18.6 C20.0598,18.6 20.3928,18.2697 20.3988,17.8611 C20.3928,17.4525 20.0598,17.1222 19.65,17.1222 L6.3546,17.1222 L4.3503,17.1222 C4.3011,17.1222 4.2516,17.1276 4.2024,17.1375 C4.182,17.1417 4.1625,17.1495 4.1424,17.1555 L4.1427,17.1567 L4.1127,17.1651 C4.0965,17.1696 4.08,17.1738 4.0647,17.1798 C4.0407,17.19 4.0182,17.2038 3.9951,17.2164 L3.9957,17.2173 L3.9657,17.2332 C3.9555,17.2383 3.9456,17.2428 3.9363,17.2491 C3.9147,17.2638 3.8949,17.2818 3.8745,17.2986 L3.8751,17.2992 L3.8436,17.3244 C3.8415,17.3262 3.8394,17.328 3.837,17.3298 L3.7614,17.403 L3.7209,17.4444 C3.645,17.5614 3.6,17.7003 3.6,17.85 C3.6,18.2637 3.9363,18.6 4.35,18.6 L18.6,18.6 L19.65,18.6 Z"/>
  </defs>
  <g fill="none" fill-rule="evenodd">
    <rect width="24" height="24"/>
    <mask id="products-b" fill="#fff">
      <use xlink:href="#products-a"/>
    </mask>
    <use fill="#000" fill-rule="nonzero" xlink:href="#products-a"/>
    <g fill="#000" mask="url(#products-b)">
      <rect width="24" height="24"/>
    </g>
  </g>
</svg>
