<svg xmlns="http://www.w3.org/2000/svg" xmlns:xlink="http://www.w3.org/1999/xlink" width="24" height="24" viewBox="0 0 24 24">
  <defs>
    <path id="services-a" d="M21.9321326,11.4895426 C21.8343285,11.3789434 21.6665509,11.3706418 21.5578797,11.4691902 L21.0378485,11.9407765 L18.2176995,9.11554342 C18.1137993,9.01163911 17.9462867,9.01190691 17.8429166,9.11715019 C17.7398115,9.22212567 17.7403416,9.39163965 17.8445069,9.49581175 L20.6429216,12.2990856 L19.2574969,13.5553101 L14.64984,8.83998277 L19.2299316,4.46234444 C19.3362172,4.36058249 19.3409882,4.19106851 19.2402686,4.08368287 C19.1392839,3.97602944 18.9717713,3.97201252 18.8654856,4.07297109 L14.0887258,8.63886903 C14.0370407,8.68841103 14.0070899,8.75669865 14.0057646,8.8287354 C14.0044394,8.90077215 14.0322698,8.97013095 14.0820995,9.02154751 L14.5064471,9.45591036 L13.5716101,10.4440724 L11.7684641,10.2499213 C11.6886836,10.2402807 11.6104934,10.2692026 11.5537723,10.325975 L10.8209047,11.06 L9.45853947,9.70040683 L9.91760883,9.2306951 C9.96743853,9.17954633 9.99526895,9.10991973 9.99394369,9.03788298 C9.99261843,8.96584624 9.96293265,8.89755861 9.91098254,8.84801661 L5.13448775,4.28238647 C5.02846711,4.18116011 4.8604244,4.18517703 4.7597048,4.29309825 C4.65898519,4.40048389 4.66375612,4.56999787 4.77004181,4.67175982 L7.99333425,7.75220111 L3.2730304,12.4319118 L2.44209365,11.6786055 C2.3334225,11.5800571 2.16564484,11.5888943 2.0678408,11.6989579 C1.97003676,11.8090215 1.97904852,11.9782677 2.08798472,12.0770839 L4.57655414,14.333789 C4.62691395,14.3795819 4.69052633,14.4023444 4.75360861,14.4023444 C4.82225697,14.4023444 4.89064028,14.375565 4.94232535,14.3228094 L5.39317811,13.8613993 L7.87167557,16.3312689 L7.41631693,16.7991061 C7.31427207,16.9040816 7.31480217,17.0722566 7.41790724,17.1761609 L8.34717813,18.1150488 C8.34717813,18.1150488 8.34770823,18.1153166 8.34770823,18.1155844 C8.34770823,18.1158522 8.34797328,18.1161199 8.34823834,18.1161199 L9.27777428,19.0445638 L10.205985,19.9826483 L11.1352559,20.9215362 C11.1869409,20.9737561 11.2547941,21 11.3226473,21 C11.3905005,21 11.4583537,20.9737561 11.5100388,20.9215362 L11.9908424,20.4357568 L12.4795975,20.9228752 C12.5310176,20.9742917 12.5983407,21 12.6656638,21 C12.733517,21 12.8013702,20.9737561 12.8530552,20.9215362 L13.5949347,20.1719791 L13.704401,20.2825783 C13.756086,20.3347982 13.8239392,20.3610421 13.8917924,20.3610421 C13.9596456,20.3610421 14.0274989,20.3347982 14.0791839,20.2825783 L14.8210633,19.5330212 L14.9305296,19.6436203 C14.9822147,19.6958403 15.0500679,19.7220842 15.1179211,19.7220842 C15.1857743,19.7220842 15.2536275,19.6958403 15.3053126,19.6436203 L16.047192,18.8940633 L16.1563933,19.0043946 C16.2080783,19.0566146 16.2759315,19.0828585 16.3437847,19.0828585 C16.4116379,19.0828585 16.4794912,19.0566146 16.5311762,19.0043946 L17.4604471,18.0655068 C17.5640823,17.9607991 17.5640823,17.7915529 17.4604471,17.6868452 L16.0805885,16.2927065 L18.574459,13.619313 L19.0579131,14.1141974 C19.1095981,14.1672208 19.1779814,14.1937324 19.2466298,14.1937324 C19.3097121,14.1937324 19.3733245,14.1709699 19.4236843,14.125177 L21.9122537,11.8684719 C22.0209248,11.7688523 22.0299366,11.5996061 21.9321326,11.4895426 Z M8.52688311,11.6387041 C8.52688311,12.2848925 8.00658683,12.8103055 7.36728238,12.8103055 C7.11283285,12.8103055 6.86845528,12.7256824 6.66913648,12.5735751 L8.2925775,10.9330654 C8.44312681,11.1347147 8.52688311,11.3816213 8.52688311,11.6387041 Z M8.66842066,10.5533326 L9.11079177,10.1063834 L9.34986831,10.3449884 L8.86270348,10.8489779 C8.80863296,10.7442702 8.74369532,10.6451862 8.66842066,10.5533326 Z M4.74247644,13.7644577 L3.66822233,12.7902209 L8.37871927,8.12041868 L9.35039842,9.04913036 L4.74247644,13.7644577 Z M6.29329332,12.9533078 C6.38712159,13.0317717 6.4883713,13.0989881 6.59598224,13.1549572 C6.51196089,13.2422582 6.42528902,13.3330406 6.33808704,13.4240907 C6.23259651,13.5341543 6.12975649,13.6410044 6.03036214,13.7441053 L5.76875622,13.4835411 L6.29329332,12.9533078 Z M8.24910904,16.7069848 L8.80624749,17.262123 L8.53244919,17.5446463 L7.97849136,16.9849556 L8.24910904,16.7069848 Z M9.46278029,18.4763037 L8.90908751,17.9233078 L9.18553632,17.6402489 L9.74161457,18.194316 L9.46278029,18.4763037 Z M10.119048,18.5705674 L10.6772467,19.1267768 L10.3928463,19.4141204 L9.8383584,18.8538941 L10.119048,18.5705674 Z M11.3223823,20.3530082 L10.7678943,19.7927819 L11.0549452,19.5027604 L11.6131439,20.0592376 L11.3223823,20.3530082 Z M16.3435197,18.4355989 L16.2343184,18.3252675 L16.2343184,18.3252675 L15.1643051,17.2441807 C15.1643051,17.2441807 15.1640401,17.2441807 15.1640401,17.2439129 L14.8388218,16.915329 C14.7351866,16.8106213 14.567674,16.8106213 14.4640388,16.915329 C14.3604037,17.0200366 14.3604037,17.1892828 14.4640388,17.2939905 L15.6724091,18.5145983 L15.1179211,19.0748246 L13.6129582,17.5542869 C13.509323,17.4495792 13.3418104,17.4495792 13.2381752,17.5542869 C13.13454,17.6589946 13.13454,17.8282408 13.2381752,17.9329484 L13.5639236,18.262068 L14.4462804,19.153824 L13.8917924,19.7140503 L13.0216281,18.8351484 L12.7123128,18.5226321 C12.7123128,18.5226321 12.7120478,18.5226321 12.7120478,18.5223644 L12.3868295,18.1937804 C12.2831943,18.0890727 12.1156817,18.0890727 12.0120465,18.1937804 C11.9084114,18.2984881 11.9084114,18.4677343 12.0120465,18.5724419 L12.6203399,19.1870306 L13.2201517,19.7930497 L12.6643385,20.354615 L6.40779561,14.1200889 C6.50825017,14.0159168 6.61241544,13.90746 6.71870113,13.7963252 C6.87481652,13.6335061 7.02854645,13.4730972 7.16531307,13.3327728 C7.23210607,13.3408066 7.29916412,13.3458947 7.36728238,13.3458947 C8.29920379,13.3458947 9.0569863,12.5800022 9.0569863,11.6387041 C9.0569863,11.5682742 9.05168527,11.4986476 9.04320362,11.4295566 L9.72730178,10.7215076 L10.4447965,11.4373226 L7.9427094,13.9441479 C7.88890392,13.9979746 7.8605434,14.0724215 7.86478423,14.1490107 C7.86902505,14.2256 7.90507207,14.2962978 7.96444363,14.3439652 C8.02620065,14.3940428 9.47762318,15.504587 11.9977337,12.9241182 L16.8980076,17.8753726 L16.3435197,18.4355989 Z M15.7052754,15.9132416 L12.1814145,12.3526446 C12.1307896,12.3014958 12.0679724,12.2731096 11.9897822,12.2741807 C11.9179532,12.2752519 11.8501,12.3057805 11.8008004,12.358536 C10.1749739,14.1064314 9.08587692,14.1594547 8.59473632,14.0448386 L11.8373775,10.7959545 L13.10883,10.9327976 L12.9179929,11.1347147 C12.8167432,11.2415648 12.8207189,11.4110787 12.9262095,11.5133763 C13.0319651,11.615406 13.1994777,11.6119247 13.3009924,11.5048068 L14.824509,9.89455791 L18.1681349,13.2727868 L15.7052754,15.9132416 Z M16.1688507,8.22512637 C16.1688507,8.68653647 16.540453,9.0619845 16.9971369,9.0619845 C17.4538208,9.0619845 17.8254232,8.68653647 17.8254232,8.22512637 C17.8254232,7.76371627 17.4538208,7.38826824 16.9971369,7.38826824 C16.540453,7.38826824 16.1688507,7.76371627 16.1688507,8.22512637 Z M17.29532,8.22512637 C17.29532,8.39115902 17.1614689,8.5263953 16.9971369,8.5263953 C16.8328049,8.5263953 16.6989539,8.39115902 16.6989539,8.22512637 C16.6989539,8.05909372 16.8328049,7.92385745 16.9971369,7.92385745 C17.1614689,7.92385745 17.29532,8.05909372 17.29532,8.22512637 Z"/>
  </defs>
  <g fill="none" fill-rule="evenodd">
    <rect width="24" height="24"/>
    <mask id="services-b" fill="#fff">
      <use xlink:href="#services-a"/>
    </mask>
    <use fill="#231F20" fill-rule="nonzero" xlink:href="#services-a"/>
    <g fill="#000" mask="url(#services-b)">
      <rect width="24" height="24"/>
    </g>
  </g>
</svg>
