<svg xmlns="http://www.w3.org/2000/svg" xmlns:xlink="http://www.w3.org/1999/xlink" width="24" height="24" viewBox="0 0 24 24">
  <defs>
    <path id="portfolio-a" d="M6.30000454,17.9999824 L13.5000081,17.9999824 L20.7000116,17.9999824 C20.8800117,17.9999824 21,17.8799944 21,17.6999947 L21,12.3000053 L21,6.90001582 L21,3.2999877 C21,3.11998805 20.8800117,3 20.7000116,3 L14.9999854,3 L11.699972,3 L6.29996938,3 C6.1199693,3 5.99998096,3.11998805 5.99998096,3.2999877 L5.99998096,10.4999736 L5.99998096,12.8999807 L5.99998096,16.4999736 L5.99998096,17.6999596 C5.99998096,17.8799592 6.12000445,17.9999824 6.30000454,17.9999824 Z M6.59999297,13.1999684 L9.59998271,13.1999684 C9.44997092,14.789977 8.18997031,16.0499745 6.59999297,16.1999508 L6.59999297,13.1999684 Z M6.59999297,3.60001055 L11.3999836,3.60001055 L11.3999836,5.40000703 L11.0999952,5.40000703 C10.9199951,5.40000703 10.8000067,5.51999508 10.8000067,5.69999473 C10.8000067,5.87999438 10.9199951,5.99998242 11.0999952,5.99998242 L12.299984,5.99998242 C12.4799841,5.99998242 12.5999725,5.87999438 12.5999725,5.69999473 C12.5999725,5.51999508 12.4799841,5.40000703 12.299984,5.40000703 L11.9999956,5.40000703 L11.9999956,3.60001055 L14.6999969,3.60001055 L14.6999969,6.90001582 C14.6999969,7.08001547 14.8199853,7.20000352 14.9999854,7.20000352 L16.1999742,7.20000352 L16.1999742,7.49999121 C16.1999742,7.67999086 16.3199626,7.79997891 16.4999626,7.79997891 C16.6799627,7.79997891 16.7999511,7.67999086 16.7999511,7.49999121 L16.7999511,6.30000527 C16.7999511,6.12000562 16.6799627,6.00001758 16.4999626,6.00001758 C16.3199626,6.00001758 16.1999742,6.12000562 16.1999742,6.30000527 L16.1999742,6.59999297 L15.2999738,6.59999297 L15.2999738,3.60001055 L20.399988,3.60001055 L20.399988,6.59999297 L19.1999991,6.59999297 L19.1999991,6.30000527 C19.1999991,6.12000562 19.0800108,6.00001758 18.9000107,6.00001758 C18.7200106,6.00001758 18.6000223,6.12000562 18.6000223,6.30000527 L18.6000223,7.49999121 C18.6000223,7.67999086 18.7200106,7.79997891 18.9000107,7.79997891 C19.0800108,7.79997891 19.1999991,7.67999086 19.1999991,7.49999121 L19.1999991,7.20000352 L20.399988,7.20000352 L20.399988,11.9999824 L18.5999871,11.9999824 L18.5999871,11.6999947 C18.5999871,11.5199951 18.4799988,11.400007 18.2999987,11.400007 C18.1199986,11.400007 18.0000103,11.5199951 18.0000103,11.6999947 L18.0000103,12.8999807 C18.0000103,13.0799803 18.1199986,13.1999684 18.2999987,13.1999684 C18.4799988,13.1999684 18.5999871,13.0799803 18.5999871,12.8999807 L18.5999871,12.599993 L20.399988,12.599993 L20.399988,17.3999719 L13.7999965,17.3999719 L13.7999965,12.599993 L15.5999974,12.599993 L15.5999974,12.8999807 C15.5999974,13.0799803 15.7199857,13.1999684 15.8999858,13.1999684 C16.0799859,13.1999684 16.1999742,13.0799803 16.1999742,12.8999807 L16.1999742,11.6999947 C16.1999742,11.5199951 16.0799859,11.400007 15.8999858,11.400007 C15.7199857,11.400007 15.5999974,11.5199951 15.5999974,11.6999947 L15.5999974,11.9999824 L13.5000081,11.9999824 C13.320008,11.9999824 13.2000196,12.1199705 13.2000196,12.2999701 L13.2000196,17.3999719 L6.59999297,17.3999719 L6.59999297,16.7886762 C8.61884161,16.6363796 10.1999947,14.9590079 10.1999947,12.8999807 C10.1999947,12.719981 10.0800064,12.599993 9.9000063,12.599993 L6.59999297,12.599993 L6.59999297,10.7999965 L11.7000072,10.7999965 C11.8800073,10.7999965 11.9999956,10.6800084 11.9999956,10.5000088 L11.9999956,8.39998945 L12.299984,8.39998945 C12.4799841,8.39998945 12.5999725,8.28000141 12.5999725,8.10000176 C12.5999725,7.92000211 12.4799841,7.80001406 12.299984,7.80001406 L11.0999952,7.80001406 C10.9199951,7.80001406 10.8000067,7.92000211 10.8000067,8.10000176 C10.8000067,8.28000141 10.9199951,8.39998945 11.0999952,8.39998945 L11.3999836,8.39998945 L11.3999836,10.1999859 L6.59999297,10.1999859 L6.59999297,3.60001055 Z M5.31000406,17.9099826 L4.46133177,18.7586528 C4.41228878,18.8468597 4.31951139,18.8999807 4.20001523,18.8999807 C4.08048393,18.8999807 3.98770654,18.8468597 3.93866354,18.7586528 L3.08999125,17.9099826 C2.97000292,17.7899594 2.97000292,17.6099597 3.08999125,17.4899717 C3.21001475,17.3699837 3.39001484,17.3699837 3.51000318,17.4899717 L3.89999165,17.8799592 L3.89999165,4.01998629 L3.51000318,4.41000896 C3.38997968,4.52999701 3.20997959,4.53003217 3.08999125,4.41000896 C2.97000292,4.28998576 2.97000292,4.10998611 3.08999125,3.98999807 L3.93862839,3.14132785 C3.98770654,3.05312099 4.08048393,3 4.19998008,3 C4.31947623,3 4.41228878,3.05312099 4.46133177,3.14132785 L5.3099689,3.98999807 C5.42995724,4.11002127 5.42995724,4.29002092 5.3099689,4.41000896 C5.24999231,4.47002057 5.18998056,4.50000879 5.09998052,4.50000879 C5.00998047,4.50000879 4.95000388,4.47002057 4.88999213,4.41000896 L4.50000366,4.01998629 L4.50000366,17.8799592 L4.88999213,17.4899717 C5.01001563,17.3699837 5.19001572,17.3699837 5.31000406,17.4899717 C5.4299924,17.6099949 5.4299924,17.7899946 5.31000406,17.9099826 Z M21,19.800225 C20.9998945,19.9196154 20.9468086,20.0122871 20.8586718,20.0612948 L20.0099995,20.909965 C19.9500229,20.9699766 19.8900112,20.9999648 19.8000111,20.9999648 C19.7100111,20.9999648 19.6500345,20.9699766 19.5900227,20.909965 C19.4700344,20.7899418 19.4700344,20.6099422 19.5900227,20.4899541 L19.9800112,20.0999666 L6.12000445,20.0999666 L6.50995777,20.4899893 C6.62994611,20.6100125 6.62994611,20.7900121 6.50995777,20.9100002 C6.44998118,20.9700118 6.38996943,21 6.29996938,21 C6.20996934,21 6.14999275,20.9700118 6.089981,20.9100002 L5.24130871,20.06133 C5.15310164,20.0122519 5.09998052,19.9195099 5.09998052,19.7999789 C5.09998052,19.6804479 5.15310164,19.5876707 5.24130871,19.5386279 L6.089981,18.6899576 C6.2100045,18.5699696 6.39000458,18.5699696 6.50999292,18.6899576 C6.62998126,18.8099808 6.62998126,18.9899805 6.50999292,19.1099685 L6.12000445,19.4999209 L19.9799761,19.4999209 L19.5899876,19.1099334 C19.4699993,18.9899102 19.4699993,18.8099105 19.5899876,18.6899225 C19.7100111,18.5699344 19.8900112,18.5699344 20.0099995,18.6899225 L20.8586718,19.5385927 C20.9468437,19.5876356 20.9999297,19.6803073 21,19.7996625 L21,19.800225 Z"/>
  </defs>
  <g fill="none" fill-rule="evenodd">
    <rect width="24" height="24"/>
    <mask id="portfolio-b" fill="#fff">
      <use xlink:href="#portfolio-a"/>
    </mask>
    <use fill="#000" fill-rule="nonzero" xlink:href="#portfolio-a"/>
    <g fill="#000" mask="url(#portfolio-b)">
      <rect width="24" height="24"/>
    </g>
  </g>
</svg>
