<?xml version="1.0" encoding="UTF-8"?>
<svg width="36px" height="36px" viewBox="0 0 36 36" version="1.1" xmlns="http://www.w3.org/2000/svg" xmlns:xlink="http://www.w3.org/1999/xlink">
    <!-- Generator: Sketch 42 (36781) - http://www.bohemiancoding.com/sketch -->
    <title>Buttons/Social/default</title>
    <desc>Created with Sketch.</desc>
    <defs>
        <rect id="path-1" x="0" y="0" width="36" height="36"></rect>
        <mask id="mask-2" maskContentUnits="userSpaceOnUse" maskUnits="objectBoundingBox" x="0" y="0" width="36" height="36" fill="white">
            <use xlink:href="#path-1"></use>
        </mask>
        <path d="M13.3196507,21 L13.3196507,11.9989462 L15.6863599,11.9989462 L16,8.89713316 L13.3196507,8.89713316 L13.3236717,7.34464589 C13.3236717,6.53564528 13.3968879,6.10216428 14.5036755,6.10216428 L15.9832457,6.10216428 L15.9832457,3 L13.6162014,3 C10.7730005,3 9.77226748,4.50471302 9.77226748,7.03516715 L9.77226748,8.89748444 L8,8.89748444 L8,11.9992974 L9.77226748,11.9992974 L9.77226748,21 L13.3196507,21 Z" id="path-3"></path>
    </defs>
    <g id="Page-1" stroke="none" stroke-width="1" fill="none" fill-rule="evenodd" opacity="0.5">
        <g id="03.-LimService---Desktop---Menu" transform="translate(-669.000000, -658.000000)">
            <g id="Buttons/Social/default" transform="translate(669.000000, 658.000000)">
                <g>
                    <use id="Border" stroke="#FFFFFF" mask="url(#mask-2)" stroke-width="2" xlink:href="#path-1"></use>
                    <g id="Icons/Social/fb" transform="translate(6.000000, 6.000000)">
                        <rect id="Frame" x="0" y="0" width="24" height="24"></rect>
                        <mask id="mask-4" fill="white">
                            <use xlink:href="#path-3"></use>
                        </mask>
                        <use id="Shape" fill="#FFFFFF" fill-rule="evenodd" xlink:href="#path-3"></use>
                        <g id="Colors/White" mask="url(#mask-4)" fill-rule="evenodd" fill="#FFFFFF">
                            <rect id="Rectangle" x="0" y="0" width="24" height="24"></rect>
                        </g>
                    </g>
                </g>
            </g>
        </g>
    </g>
</svg>