<?xml version="1.0" encoding="UTF-8"?>
<svg width="36px" height="36px" viewBox="0 0 36 36" version="1.1" xmlns="http://www.w3.org/2000/svg" xmlns:xlink="http://www.w3.org/1999/xlink">
    <!-- Generator: Sketch 42 (36781) - http://www.bohemiancoding.com/sketch -->
    <title>Buttons/Social/default</title>
    <desc>Created with Sketch.</desc>
    <defs>
        <rect id="path-1" x="0" y="0" width="36" height="36"></rect>
        <mask id="mask-2" maskContentUnits="userSpaceOnUse" maskUnits="objectBoundingBox" x="0" y="0" width="36" height="36" fill="white">
            <use xlink:href="#path-1"></use>
        </mask>
        <path d="M12.0008438,3 C9.5565683,3 9.2498151,3.0106875 8.2898051,3.054375 C7.33167012,3.09825 6.67766331,3.2499375 6.10540735,3.4725 C5.51346368,3.702375 5.01133345,4.009875 4.51107824,4.5103125 C4.01044803,5.0105625 3.70294482,5.5126875 3.47231742,6.1044375 C3.2491901,6.676875 3.09731351,7.3310625 3.05418806,8.2888125 C3.01125012,9.2488125 3,9.55575 3,12 C3,14.44425 3.01087511,14.7500625 3.05437557,15.7100625 C3.09843853,16.6681875 3.25012761,17.3221875 3.47250492,17.8944375 C3.70256982,18.486375 4.01007302,18.9885 4.51051573,19.48875 C5.01058344,19.989375 5.51271367,20.297625 6.10428234,20.5275 C6.6769133,20.7500625 7.33110762,20.90175 8.28905509,20.945625 C9.24906509,20.9893125 9.55563079,21 11.9997187,21 C14.4441817,21 14.7499974,20.9893125 15.7100074,20.945625 C16.6681424,20.90175 17.3228992,20.7500625 17.8955302,20.5275 C18.4872863,20.297625 18.9886665,19.989375 19.4887343,19.48875 C19.9893645,18.9885 20.2968677,18.486375 20.5274951,17.894625 C20.7487474,17.3221875 20.900624,16.668 20.9456244,15.71025 C20.9887499,14.75025 21,14.44425 21,12 C21,9.55575 20.9887499,9.249 20.9456244,8.289 C20.900624,7.330875 20.7487474,6.676875 20.5274951,6.104625 C20.2968677,5.5126875 19.9893645,5.0105625 19.4887343,4.5103125 C18.988104,4.0096875 18.4874738,3.7021875 17.8949677,3.4725 C17.3212117,3.2499375 16.6668299,3.09825 15.7086949,3.054375 C14.7486849,3.0106875 14.4430567,3 11.9980312,3 L12.0008438,3 Z M11.1934603,4.621875 C11.4330878,4.6215 11.7004656,4.621875 12.0008438,4.621875 C14.4038688,4.621875 14.6886843,4.6305 15.6376316,4.673625 C16.5151408,4.71375 16.9913957,4.860375 17.308649,4.9835625 C17.7286534,5.1466875 18.028094,5.3416875 18.3429098,5.6566875 C18.6579131,5.9716875 18.8529151,6.2716875 19.0164168,6.6916875 C19.1396056,7.0085625 19.2864197,7.4848125 19.3263576,8.3623125 C19.369483,9.3110625 19.3788581,9.5960625 19.3788581,11.9979375 C19.3788581,14.3998125 19.369483,14.6848125 19.3263576,15.6335625 C19.2862321,16.5110625 19.1396056,16.9873125 19.0164168,17.3041875 C18.8532901,17.7241875 18.6579131,18.02325 18.3429098,18.3380625 C18.0279065,18.6530625 17.7288409,18.8480625 17.308649,19.0111875 C16.9917707,19.1349375 16.5151408,19.2811875 15.6376316,19.3213125 C14.6888718,19.3644375 14.4038688,19.3738125 12.0008438,19.3738125 C9.59763123,19.3738125 9.31281576,19.3644375 8.36405588,19.3213125 C7.48654673,19.2808125 7.01029177,19.1341875 6.69285097,19.011 C6.27284659,18.847875 5.97284347,18.652875 5.65784019,18.337875 C5.3428369,18.022875 5.14783487,17.723625 4.98433317,17.3034375 C4.86114439,16.9865625 4.71433036,16.5103125 4.67439244,15.6328125 C4.63126699,14.6840625 4.6226419,14.3990625 4.6226419,11.9956875 C4.6226419,9.5923125 4.63126699,9.3088125 4.67439244,8.3600625 C4.71451786,7.4825625 4.86114439,7.0063125 4.98433317,6.6890625 C5.14745987,6.2690625 5.3428369,5.9690625 5.65784019,5.6540625 C5.97284347,5.3390625 6.27284659,5.1440625 6.69285097,4.9805625 C7.01010427,4.8568125 7.48654673,4.7105625 8.36405588,4.67025 C9.19431452,4.63275 9.51606788,4.6215 11.1934603,4.619625 L11.1934603,4.621875 Z M16.8050188,6.11625 C16.2087626,6.11625 15.7250076,6.5994375 15.7250076,7.195875 C15.7250076,7.792125 16.2087626,8.275875 16.8050188,8.275875 C17.401275,8.275875 17.8850301,7.792125 17.8850301,7.195875 C17.8850301,6.599625 17.401275,6.115875 16.8050188,6.115875 L16.8050188,6.11625 Z M12.0008438,7.378125 C9.44837967,7.378125 7.37892061,9.4475625 7.37892061,12 C7.37892061,14.5524375 9.44837967,16.6209375 12.0008438,16.6209375 C14.5533078,16.6209375 16.6220169,14.5524375 16.6220169,12 C16.6220169,9.4475625 14.5531203,7.378125 12.0006563,7.378125 L12.0008438,7.378125 Z M12.0008438,9 C13.657611,9 15.000875,10.3430625 15.000875,12 C15.000875,13.65675 13.657611,15 12.0008438,15 C10.343889,15 9.00081251,13.65675 9.00081251,12 C9.00081251,10.3430625 10.343889,9 12.0008438,9 L12.0008438,9 Z" id="path-3"></path>
    </defs>
    <g id="Page-1" stroke="none" stroke-width="1" fill="none" fill-rule="evenodd" opacity="0.5">
        <g id="03.-LimService---Desktop---Menu" transform="translate(-735.000000, -658.000000)">
            <g id="Buttons/Social/default" transform="translate(735.000000, 658.000000)">
                <g>
                    <use id="Border" stroke="#FFFFFF" mask="url(#mask-2)" stroke-width="2" xlink:href="#path-1"></use>
                    <g id="Icons/Social/insta" transform="translate(6.000000, 6.000000)">
                        <rect id="Frame" x="0" y="0" width="24" height="24"></rect>
                        <mask id="mask-4" fill="white">
                            <use xlink:href="#path-3"></use>
                        </mask>
                        <use id="Shape" fill="#FFFFFF" fill-rule="evenodd" xlink:href="#path-3"></use>
                        <g id="Colors/White" mask="url(#mask-4)" fill-rule="evenodd" fill="#FFFFFF">
                            <rect id="Rectangle" x="0" y="0" width="24" height="24"></rect>
                        </g>
                    </g>
                </g>
            </g>
        </g>
    </g>
</svg>