<svg width="13" height="14" viewBox="0 0 13 14" xmlns="http://www.w3.org/2000/svg"><title>ic_attache</title><path d="M2.13 6.486l5.4-5.4A2.908 2.908 0 1 1 11.644 5.2L7.273 9.571A1.819 1.819 0 0 1 4.7 7l3.857-3.857 1.029 1.029-3.903 3.903c-.283.283.231.797.514.514l4.417-4.417a1.459 1.459 0 0 0 0-2.057 1.459 1.459 0 0 0-2.057 0l-5.4 5.4a2.548 2.548 0 0 0 0 3.6 2.548 2.548 0 0 0 3.6 0l4.886-4.886 1.028 1.028-4.885 4.886a3.998 3.998 0 0 1-5.657 0 3.998 3.998 0 0 1 0-5.657z" fill="#2575CB" fill-rule="evenodd"/></svg>