<svg width="22" height="20" viewBox="0 0 22 20" xmlns="http://www.w3.org/2000/svg"><title>document-file-pdf</title><path d="M13.933 7.407V5.185L9.533 0H1.47C.658 0 0 .665 0 1.487v17.026C0 19.334.653 20 1.465 20h11.004c.809 0 1.464-.665 1.464-1.475v-1.488h5.862A2.213 2.213 0 0 0 22 14.816V9.629c0-1.227-.98-2.222-2.205-2.222h-5.862zm-.733 9.63v1.486a.735.735 0 0 1-.733.736h-11c-.4 0-.734-.33-.734-.737V1.478c0-.4.327-.737.73-.737H8.8v3.7c0 .828.656 1.485 1.465 1.485H13.2v1.481H7.338A2.213 2.213 0 0 0 5.133 9.63v5.187c0 1.227.98 2.221 2.205 2.221H13.2zM9.533 1.111v3.327c0 .413.33.747.731.747h2.716L9.533 1.111zM7.33 8.148c-.807 0-1.462.667-1.462 1.476v5.197c0 .815.661 1.475 1.462 1.475h12.475c.808 0 1.463-.667 1.463-1.475V9.624c0-.815-.662-1.476-1.463-1.476H7.329zm9.538 3.704V10.37H19.8v-.74h-3.667v5.185h.734v-2.222h2.2v-.741h-2.2zm-9.534-.74v3.703h.734v-2.222H9.53c.812 0 1.47-.658 1.47-1.482 0-.818-.656-1.481-1.47-1.481H7.333v1.481zm.734-.742v1.482h1.467a.735.735 0 0 0 .733-.74c0-.41-.325-.742-.733-.742H8.067zm3.666-.74v5.185h2.197c.812 0 1.47-.657 1.47-1.486v-2.214c0-.82-.656-1.485-1.47-1.485h-2.197zm.734.74v3.704h1.467a.735.735 0 0 0 .733-.74V11.11a.734.734 0 0 0-.733-.74h-1.467z" fill="#4A4A4A" fill-rule="evenodd"/></svg>