<svg width="91" height="40" viewBox="0 0 91 40" xmlns="http://www.w3.org/2000/svg"><title>Logo</title><g fill="#FFD980" fill-rule="evenodd"><path d="M6.242 33.712H2.777l-.515 1.223c-.071.17-.106.304-.106.402 0 .187.125.316.376.389v.206H.008v-.206a.644.644 0 0 0 .342-.179c.078-.085.167-.25.268-.497l2.808-6.685c.09-.212.134-.382.134-.51 0-.195-.108-.335-.324-.42v-.207h2.708v.207c-.22.072-.33.198-.33.376 0 .123.035.263.106.42l2.91 6.704c.123.285.231.48.325.584a.68.68 0 0 0 .375.207v.206H6.51v-.206c.247-.047.37-.179.37-.396 0-.089-.037-.22-.112-.395l-.527-1.223zm78.01-3.74v5.289a.48.48 0 0 0 .079.299c.052.068.147.123.282.166v.206h-2.252v-.206c.136-.043.23-.098.282-.166a.483.483 0 0 0 .08-.3v-7.366a.47.47 0 0 0-.08-.293c-.052-.068-.146-.124-.282-.166v-.207h2.601v.207c-.16.047-.24.144-.24.293 0 .102.051.215.156.338l4.212 4.99v-5.162a.47.47 0 0 0-.08-.293c-.052-.068-.146-.124-.282-.166v-.207h2.252v.207c-.135.042-.23.098-.282.166a.47.47 0 0 0-.08.293v7.367c0 .131.027.231.08.299.052.068.147.123.282.166v.206h-2.41v-.206c.157-.039.235-.13.235-.274 0-.086-.092-.234-.275-.446l-4.278-5.035zm-8.703-.158l-1.75 5.013c-.1.255-.15.417-.15.485 0 .195.137.333.413.414v.206H71.61v-.206c.25-.056.375-.2.375-.434 0-.063-.052-.252-.156-.567l-2.186-6.417c-.108-.318-.206-.534-.293-.647a.647.647 0 0 0-.383-.226v-.207h2.652v.207c-.235.06-.353.185-.353.376 0 .098.03.238.09.42l1.507 4.598 1.634-4.623c.07-.2.106-.331.106-.395 0-.195-.125-.32-.375-.376v-.207h2.775v.207c-.254.076-.38.215-.38.414 0 .068.031.196.095.383l1.552 4.597 1.503-4.52c.078-.226.117-.394.117-.504 0-.187-.134-.31-.403-.37v-.207h2.624v.207c-.186.06-.315.136-.386.23-.07.093-.164.307-.28.643l-2.185 6.417c-.104.306-.157.51-.157.612 0 .208.133.338.397.389v.206h-2.487v-.206c.26-.047.391-.19.391-.427 0-.081-.057-.272-.173-.574l-1.682-4.91zm-13.706-.627c.75-1.382 2.013-2.085 3.79-2.11 1.333 0 2.39.41 3.17 1.23.825.858 1.237 1.968 1.237 3.328a4.78 4.78 0 0 1-.593 2.333c-.773 1.41-2.04 2.116-3.802 2.116-1.322 0-2.373-.41-3.153-1.23a4.339 4.339 0 0 1-.952-1.575 5.077 5.077 0 0 1-.286-1.702c0-.871.196-1.668.589-2.39zm5.632.11c-.489-.483-1.1-.73-1.836-.738-.728 0-1.334.246-1.82.738-.574.581-.862 1.342-.862 2.283 0 .941.288 1.703.862 2.284.486.491 1.096.737 1.831.737.735 0 1.344-.246 1.825-.737.288-.293.508-.651.66-1.075.135-.378.202-.768.202-1.17 0-.984-.287-1.758-.862-2.322zm-8.973-.634v6.597c0 .132.026.232.08.3.052.068.146.123.282.166v.206h-2.392v-.206c.136-.043.23-.098.283-.166a.483.483 0 0 0 .079-.3v-6.597h-2.37c-.113 0-.199.029-.258.087-.06.058-.108.165-.146.32h-.18V26.82h.18c.041.155.09.261.149.32.057.058.142.087.254.087h6.404c.116 0 .203-.03.263-.088.06-.058.108-.164.146-.319h.18v2.249h-.18c-.038-.155-.086-.262-.146-.32-.06-.058-.147-.087-.263-.087h-2.365zM34.741 32.11v2.387h4.908c.111 0 .197-.03.257-.09.06-.058.108-.164.145-.317h.18v2.249h-.18c-.037-.153-.086-.26-.145-.318-.06-.06-.146-.09-.258-.09h-6.937v-.206c.135-.043.23-.098.282-.166a.482.482 0 0 0 .08-.3V27.9a.482.482 0 0 0-.08-.3c-.053-.067-.147-.123-.282-.165v-.207h6.805c.112 0 .198-.03.258-.09.06-.061.108-.167.145-.317h.18v2.249h-.18c-.037-.151-.086-.257-.145-.317-.06-.06-.146-.09-.258-.09h-4.775v2.062h3.1c.112 0 .198-.03.257-.089.06-.06.109-.165.146-.318h.18v2.2h-.18c-.037-.148-.086-.253-.146-.314-.06-.062-.145-.093-.257-.093h-3.1zm-7.559 2.387h4.694c.115 0 .203-.03.263-.09.06-.058.108-.164.145-.317h.18v2.249h-.18c-.037-.153-.086-.26-.145-.318-.06-.06-.148-.09-.263-.09h-6.723v-.206c.135-.043.23-.098.282-.166a.482.482 0 0 0 .079-.3V27.9a.482.482 0 0 0-.08-.3c-.052-.067-.146-.123-.281-.165v-.207h2.39v.207c-.135.038-.23.092-.282.163a.497.497 0 0 0-.079.302v6.598zM19.44 32.4v2.866c0 .127.027.226.082.296.055.07.148.124.28.163v.206h-2.392v-.206c.136-.043.23-.098.283-.166a.47.47 0 0 0 .079-.293V27.9a.483.483 0 0 0-.08-.3c-.052-.067-.146-.123-.282-.165v-.207h4.772c.557 0 .998.043 1.325.128a2.2 2.2 0 0 1 .865.44c.258.217.46.502.605.854.146.366.218.753.218 1.161 0 .587-.138 1.102-.414 1.544a1.987 1.987 0 0 1-.949.807c-.393.16-.943.24-1.648.24h-2.744zm0-1.435h2.547c.507 0 .864-.061 1.069-.185a.85.85 0 0 0 .316-.386c.08-.176.12-.37.12-.584 0-.208-.04-.4-.12-.577a.85.85 0 0 0-.316-.386c-.202-.123-.558-.185-1.07-.185H19.44v2.303zm-7.766 1.435v2.866c0 .127.027.226.082.296.054.07.148.124.28.163v.206H9.643v-.206c.136-.043.23-.098.283-.166a.47.47 0 0 0 .079-.293V27.9a.482.482 0 0 0-.08-.3c-.052-.067-.146-.123-.282-.165v-.207h4.772c.556 0 .998.043 1.325.128a2.2 2.2 0 0 1 .865.44c.258.217.46.502.605.854.146.366.218.753.218 1.161 0 .587-.138 1.102-.414 1.544a1.987 1.987 0 0 1-.949.807c-.394.16-.943.24-1.649.24h-2.743zm0-1.435h2.547c.507 0 .864-.061 1.069-.185a.85.85 0 0 0 .316-.386c.08-.176.12-.37.12-.584 0-.208-.04-.4-.12-.577a.85.85 0 0 0-.316-.386c-.202-.123-.558-.185-1.07-.185h-2.546v2.303zM5.76 32.518l-1.234-3.09-1.25 3.09H5.76zM90.02 38.797s-.003-.578-.363-.817c-.141-.11-.12.038-.12.05.001.012-.03.509.387.782 0 0 .081.066.096-.015zm-43.13-.022s.282-.442.683-.405c.23-.015.007.199.007.199s-.205.276-.615.28a2.718 2.718 0 0 1-.024.013c-.409.229-1.537-.22-2.101-.007-.973.332-1.178.84-1.293.95-.033.035-.06.025-.073.006-.013-.025 0-.05 0-.05.282-.486.883-.821 1.169-.936.323-.114.605-.17 1.307-.037.613.103.888.028.924.017.003-.016.015-.03.015-.03zm.153.195s.46.008.657.238c.198.231.018.114-.215.109-.274-.029-.396-.216-.432-.254-.036-.039-.057-.08-.01-.093zm-.762-.004s.474.073.646.34c.171.268-.002.094-.239.082-.237-.012-.362-.286-.394-.331-.031-.045-.096-.101-.013-.091zm-.498-.303s.375-.369.717-.354c.301.002.089.107-.094.259-.225.17-.475.14-.534.14-.06 0-.128-.004-.09-.045zm.015-.663s-.372 0-.647.501c-.119.212.053.148.053.148s.452-.104.66-.575c.03-.081-.066-.074-.066-.074zm.195 1.693s-.404-.22-.46-.662c-.026-.175.089-.073.089-.073s.412.234.428.673c0 0 .013.092-.057.062zm-.73.279s-.443-.283-.486-.733c-.034-.195.1-.086.1-.086s.446.252.45.746c0 0 .012.105-.064.073zm-.966-1.161s.004-.578.363-.817c.142-.11.12.038.12.05 0 .012.03.509-.386.781 0 0-.082.067-.097-.014zm-2.144-.036s.282-.442.683-.405c.23-.015.008.199.008.199s-.206.276-.616.28a3.16 3.16 0 0 1-.024.013c-.408.229-1.537-.22-2.1-.007-.974.332-1.179.84-1.293.95-.033.035-.061.025-.073.006-.013-.025-.001-.05-.001-.05.282-.486.883-.821 1.17-.936.322-.114.604-.17 1.306-.037.614.103.888.028.924.017.004-.016.016-.03.016-.03zm.153.195s.46.008.658.238c.198.231.017.114-.215.109-.275-.029-.396-.216-.432-.254-.036-.039-.058-.08-.01-.093zm-.761-.004s.474.073.645.34c.172.268-.002.094-.238.082-.237-.012-.362-.286-.394-.331-.032-.045-.097-.101-.013-.091zm-.499-.303s.376-.369.717-.354c.302.002.09.107-.093.259-.225.17-.475.14-.535.14-.059 0-.127-.004-.089-.045zm.015-.663s-.371 0-.646.501c-.12.212.052.148.052.148s.453-.104.66-.575c.03-.081-.066-.074-.066-.074zm.196 1.693s-.405-.22-.46-.662c-.027-.175.088-.073.088-.073s.412.234.429.673c0 0 .013.092-.057.062zm-.73.279s-.443-.283-.487-.733c-.033-.195.1-.086.1-.086s.447.252.451.746c0 0 .012.105-.065.073zm-.966-1.161s.003-.578.363-.817c.141-.11.12.038.12.05-.001.012.03.509-.386.781 0 0-.082.067-.097-.014zm-2.26-.036s.283-.442.684-.405c.23-.015.007.199.007.199s-.205.276-.615.28a3.832 3.832 0 0 1-.024.013c-.409.229-1.537-.22-2.101-.007-.973.332-1.178.84-1.293.95-.033.035-.06.025-.073.006-.013-.025-.001-.05-.001-.05.282-.486.884-.821 1.17-.936.323-.114.605-.17 1.307-.037.613.103.888.028.924.017a.075.075 0 0 1 .015-.03zm.154.195s.46.008.657.238c.198.231.018.114-.215.109-.274-.029-.395-.216-.432-.254-.036-.039-.058-.08-.01-.093zm-.762-.004s.474.073.646.34c.171.268-.002.094-.239.082-.237-.012-.362-.286-.394-.331-.031-.045-.096-.101-.013-.091zm-.498-.303s.375-.369.717-.354c.301.002.089.107-.094.259-.225.17-.475.14-.534.14-.06 0-.128-.004-.09-.045zM36.21 38s-.372 0-.647.501c-.119.212.053.148.053.148s.452-.104.66-.575c.03-.081-.066-.074-.066-.074zm.195 1.693s-.404-.22-.46-.662c-.026-.175.089-.073.089-.073s.412.234.428.673c0 0 .013.092-.057.062zm-.73.279s-.443-.283-.486-.733c-.034-.195.1-.086.1-.086s.446.252.45.746c0 0 .012.105-.064.073zm-.966-1.161s.004-.578.363-.817c.142-.11.12.038.12.05 0 .012.03.509-.386.781 0 0-.082.067-.097-.014zm-2.259-.036s.282-.442.683-.405c.23-.015.007.199.007.199s-.205.276-.615.28a3.179 3.179 0 0 1-.024.013c-.408.229-1.537-.22-2.102-.007-.973.332-1.178.84-1.292.95-.033.035-.061.025-.074.006-.013-.025 0-.05 0-.05.282-.486.883-.821 1.17-.936.322-.114.605-.17 1.307-.037.614.103.888.028.924.017a.075.075 0 0 1 .016-.03zm.153.195s.46.008.658.238c.198.231.017.114-.215.109-.275-.029-.396-.216-.432-.254-.036-.039-.058-.08-.01-.093zm-.762-.004s.475.073.646.34c.172.268-.002.094-.238.082-.237-.012-.363-.286-.394-.331-.032-.045-.097-.101-.014-.091zm-.498-.303s.376-.369.717-.354c.302.002.089.107-.093.259-.226.17-.476.14-.535.14-.06 0-.127-.004-.09-.045zm.015-.663s-.372 0-.647.501c-.119.212.052.148.052.148s.453-.104.661-.575c.03-.081-.066-.074-.066-.074zm.195 1.693s-.404-.22-.46-.662c-.026-.175.089-.073.089-.073s.412.234.429.673c0 0 .013.092-.058.062zm-.73.279s-.443-.283-.487-.733c-.033-.195.1-.086.1-.086s.447.252.452.746c0 0 .011.105-.065.073zm-.966-1.161s.003-.578.362-.817c.142-.11.121.038.12.05 0 .012.03.509-.386.781 0 0-.081.067-.096-.014zm-2.26-.036s.283-.442.684-.405c.23-.015.007.199.007.199s-.205.276-.615.28a2.351 2.351 0 0 1-.024.013c-.408.229-1.537-.22-2.101-.007-.973.332-1.178.84-1.293.95-.033.035-.06.025-.073.006-.013-.025-.001-.05-.001-.05.282-.486.884-.821 1.17-.936.323-.114.605-.17 1.307-.037.613.103.888.028.924.017.003-.016.016-.03.016-.03zm.154.195s.46.008.657.238c.198.231.018.114-.215.109-.274-.029-.395-.216-.431-.254-.037-.039-.058-.08-.011-.093zm-.762-.004s.474.073.646.34c.171.268-.002.094-.239.082-.237-.012-.362-.286-.394-.331-.031-.045-.096-.101-.013-.091zm-.498-.303s.375-.369.717-.354c.301.002.089.107-.094.259-.225.17-.475.14-.534.14-.06 0-.128-.004-.09-.045zm.015-.663s-.372 0-.647.501c-.119.212.053.148.053.148s.452-.104.66-.575c.03-.081-.066-.074-.066-.074zm.195 1.693s-.404-.22-.46-.662c-.026-.175.089-.073.089-.073s.412.234.428.673c0 0 .013.092-.057.062zm-.73.279s-.443-.283-.486-.733c-.034-.195.1-.086.1-.086s.446.252.45.746c0 0 .012.105-.064.073zm-.966-1.161s.003-.578.363-.817c.142-.11.12.038.12.05 0 .012.03.509-.386.781 0 0-.082.067-.097-.014zm-2.144-.036s.283-.442.683-.405c.23-.015.008.199.008.199s-.206.276-.616.28a2.703 2.703 0 0 1-.024.013c-.408.229-1.537-.22-2.1-.007-.974.332-1.179.84-1.293.95-.033.035-.061.025-.074.006-.012-.025 0-.05 0-.05.282-.486.883-.821 1.169-.936.323-.114.605-.17 1.307-.037.613.103.888.028.924.017.004-.016.016-.03.016-.03zm.153.195s.46.008.658.238c.198.231.018.114-.215.109-.275-.029-.396-.216-.432-.254-.036-.039-.058-.08-.01-.093zm-.762-.004s.475.073.646.34c.172.268-.001.094-.238.082-.237-.012-.362-.286-.394-.331-.032-.045-.097-.101-.014-.091zm-.498-.303s.376-.369.718-.354c.301.002.088.107-.094.259-.225.17-.475.14-.535.14-.059 0-.127-.004-.089-.045zM21.77 38s-.371 0-.646.501c-.119.212.052.148.052.148s.453-.104.66-.575c.03-.081-.066-.074-.066-.074zm.196 1.693s-.404-.22-.46-.662c-.027-.175.088-.073.088-.073s.412.234.429.673c0 0 .013.092-.057.062zm-.73.279s-.443-.283-.487-.733c-.033-.195.1-.086.1-.086s.446.252.451.746c0 0 .012.105-.065.073zm-.966-1.161s.003-.578.363-.817c.141-.11.12.038.12.05-.001.012.03.509-.387.781 0 0-.081.067-.096-.014zm-2.26-.036s.283-.442.684-.405c.23-.015.007.199.007.199s-.205.276-.615.28a3.181 3.181 0 0 1-.024.013c-.408.229-1.537-.22-2.101-.007-.973.332-1.178.84-1.293.95-.033.035-.06.025-.073.006-.013-.025-.001-.05-.001-.05.282-.486.884-.821 1.17-.936.323-.114.605-.17 1.307-.037.614.103.888.028.924.017a.075.075 0 0 1 .016-.03zm.154.195s.46.008.658.238c.197.231.017.114-.216.109-.274-.029-.395-.216-.431-.254-.037-.039-.058-.08-.011-.093zm-.762-.004s.475.073.646.34c.171.268-.002.094-.239.082-.236-.012-.362-.286-.394-.331-.031-.045-.096-.101-.013-.091zm-.498-.303s.375-.369.717-.354c.301.002.089.107-.093.259-.226.17-.476.14-.535.14-.06 0-.127-.004-.09-.045zm.015-.663s-.372 0-.647.501c-.118.212.053.148.053.148s.452-.104.66-.575c.03-.081-.066-.074-.066-.074zm.195 1.693s-.404-.22-.46-.662c-.026-.175.089-.073.089-.073s.412.234.428.673c0 0 .014.092-.057.062zm-.73.279s-.443-.283-.486-.733c-.034-.195.1-.086.1-.086s.446.252.45.746c0 0 .012.105-.064.073zm-.965-1.161s.003-.578.362-.817c.142-.11.12.038.12.05 0 .012.03.509-.386.781 0 0-.082.067-.096-.014zm-2.26-.036s.283-.442.684-.405c.23-.015.007.199.007.199s-.205.276-.616.28a2.35 2.35 0 0 1-.023.013c-.409.229-1.538-.22-2.102-.007-.973.332-1.178.84-1.292.95-.033.035-.061.025-.074.006-.012-.025 0-.05 0-.05.282-.486.883-.821 1.17-.936.322-.114.604-.17 1.306-.037.614.103.889.028.924.017a.075.075 0 0 1 .016-.03zm.154.195s.46.008.657.238c.198.231.018.114-.215.109-.275-.029-.396-.216-.432-.254-.036-.039-.058-.08-.01-.093zm-.762-.004s.474.073.646.34c.171.268-.002.094-.239.082-.237-.012-.362-.286-.394-.331-.032-.045-.097-.101-.013-.091zm-.499-.303s.376-.369.718-.354c.3.002.088.107-.094.259-.225.17-.475.14-.535.14-.059 0-.127-.004-.089-.045zm.015-.663s-.371 0-.646.501c-.12.212.052.148.052.148s.453-.104.66-.575c.03-.081-.066-.074-.066-.074zm.196 1.693s-.404-.22-.46-.662c-.026-.175.088-.073.088-.073s.412.234.429.673c0 0 .013.092-.057.062zm-.73.279s-.443-.283-.487-.733c-.033-.195.1-.086.1-.086s.447.252.451.746c0 0 .012.105-.065.073zm-.966-1.161s.003-.578.363-.817c.141-.11.12.038.12.05-.001.012.03.509-.386.781 0 0-.082.067-.097-.014zm-2.26-.036s.283-.442.684-.405c.23-.015.007.199.007.199s-.205.276-.615.28a3.833 3.833 0 0 1-.024.013c-.408.229-1.537-.22-2.101-.007-.973.332-1.178.84-1.293.95-.033.035-.06.025-.073.006-.013-.025 0-.05 0-.05.282-.486.883-.821 1.169-.936.323-.114.605-.17 1.307-.037.613.103.888.028.924.017.003-.016.016-.03.016-.03zm.154.195s.46.008.658.238c.197.231.017.114-.215.109-.275-.029-.396-.216-.432-.254-.036-.039-.058-.08-.01-.093zm-.762-.004s.475.073.646.34c.172.268-.002.094-.238.082-.237-.012-.363-.286-.394-.331-.032-.045-.097-.101-.014-.091zm-.498-.303s.376-.369.717-.354c.302.002.089.107-.093.259-.226.17-.476.14-.535.14-.06 0-.127-.004-.09-.045zM7.215 38s-.372 0-.647.501c-.118.212.053.148.053.148s.452-.104.66-.575c.03-.081-.066-.074-.066-.074zm.195 1.693s-.404-.22-.46-.662c-.026-.175.089-.073.089-.073s.412.234.429.673c0 0 .013.092-.058.062zm-.73.279s-.443-.283-.486-.733c-.034-.195.1-.086.1-.086s.446.252.45.746c0 0 .013.105-.064.073zm-.965-1.161s.003-.578.362-.817c.142-.11.12.038.12.05 0 .012.03.509-.386.781 0 0-.082.067-.096-.014zm-4.852 0s.003-.578.363-.817c.141-.11.12.038.12.05-.001.012.03.509-.386.781 0 0-.082.067-.097-.014zm2.592-.036s.283-.442.684-.405c.23-.015.007.199.007.199s-.205.276-.616.28l-.023.013c-.409.229-1.537-.22-2.102-.007-.973.332-1.178.84-1.292.95-.033.035-.06.025-.073.006-.013-.025-.001-.05-.001-.05.282-.486.883-.821 1.17-.936.322-.114.604-.17 1.307-.037.613.103.887.028.923.017a.075.075 0 0 1 .016-.03zm.154.195s.46.008.657.238c.198.231.018.114-.215.109-.275-.029-.396-.216-.432-.254-.036-.039-.058-.08-.01-.093zm-.762-.004s.474.073.646.34c.171.268-.002.094-.239.082-.237-.012-.362-.286-.394-.331-.032-.045-.096-.101-.013-.091zm-.499-.303s.376-.369.718-.354c.301.002.088.107-.094.259-.225.17-.475.14-.535.14-.059 0-.127-.004-.089-.045zM2.363 38s-.371 0-.646.501c-.119.212.052.148.052.148s.453-.104.661-.575c.03-.081-.067-.074-.067-.074zm.196 1.693s-.404-.22-.46-.662c-.026-.175.088-.073.088-.073s.413.234.43.673c0 0 .012.092-.058.062zm-.73.279s-.443-.283-.487-.733c-.033-.195.1-.086.1-.086s.447.252.451.746c0 0 .012.105-.064.073zm47.893-1.21s-.282-.443-.683-.406c-.23-.014-.008.2-.008.2s.206.276.616.28l.024.012c.408.229 1.537-.22 2.101-.007.973.332 1.178.84 1.292.95.033.035.061.025.073.006.014-.025.002-.05.002-.05-.283-.486-.884-.821-1.17-.935-.323-.115-.605-.17-1.307-.037-.615.103-.889.027-.924.016-.004-.016-.016-.03-.016-.03zm-.154.195s-.459.007-.657.238c-.198.23-.018.113.215.108.275-.029.396-.216.432-.254.036-.039.058-.08.01-.092zm.763-.005s-.475.073-.647.34c-.17.268.002.094.24.082.236-.012.361-.286.393-.33.032-.046.097-.102.014-.092zm.498-.302s-.376-.37-.718-.355c-.3.003-.088.107.094.259.225.171.476.14.535.14.06 0 .127-.004.089-.044zm-.015-.664s.372 0 .646.502c.12.212-.052.147-.052.147s-.453-.103-.66-.575c-.03-.081.066-.074.066-.074zm-.195 1.694s.404-.221.46-.663c.026-.174-.09-.073-.09-.073s-.411.234-.428.673c0 0-.013.093.058.063zm.73.278s.442-.283.486-.733c.034-.195-.1-.086-.1-.086s-.446.252-.451.746c0 0-.012.105.065.073zm.965-1.161s-.003-.578-.362-.817c-.142-.11-.121.038-.12.05 0 .012-.03.509.386.782 0 0 .081.066.096-.015zm2.121-.035s-.282-.443-.683-.406c-.23-.014-.007.2-.007.2s.205.276.615.28l.024.012c.408.229 1.537-.22 2.101-.007.973.332 1.178.84 1.292.95.034.035.062.025.074.006.013-.025 0-.05 0-.05-.281-.486-.883-.821-1.169-.935-.323-.115-.605-.17-1.307-.037-.614.103-.888.027-.924.016-.003-.016-.016-.03-.016-.03zm-.154.195s-.459.007-.657.238c-.198.23-.017.113.216.108.274-.029.395-.216.431-.254.036-.039.058-.08.01-.092zm.763-.005s-.475.073-.646.34c-.172.268.002.094.238.082.237-.012.363-.286.394-.33.032-.046.097-.102.014-.092zm.498-.302s-.376-.37-.717-.355c-.302.003-.089.107.093.259.226.171.476.14.535.14.06 0 .127-.004.09-.044zm-.015-.664s.372 0 .646.502c.12.212-.052.147-.052.147s-.453-.103-.66-.575c-.03-.081.066-.074.066-.074zm-.195 1.694s.404-.221.46-.663c.026-.174-.089-.073-.089-.073s-.412.234-.428.673c0 0-.014.093.057.063zm.73.278s.442-.283.486-.733c.034-.195-.1-.086-.1-.086s-.446.252-.451.746c0 0-.012.105.065.073zm.965-1.161s-.003-.578-.362-.817c-.142-.11-.121.038-.12.05 0 .012-.03.509.386.782 0 0 .081.066.096-.015zm2.121-.035s-.282-.443-.683-.406c-.23-.014-.007.2-.007.2s.205.276.616.28l.023.012c.409.229 1.537-.22 2.102-.007.972.332 1.178.84 1.292.95.033.035.06.025.073.006.013-.025.001-.05.001-.05-.282-.486-.884-.821-1.17-.935-.323-.115-.605-.17-1.307-.037-.614.103-.888.027-.924.016a.075.075 0 0 0-.016-.03zm-.153.195s-.46.007-.657.238c-.198.23-.018.113.215.108.275-.029.395-.216.431-.254.037-.039.059-.08.01-.092zm.762-.005s-.474.073-.646.34c-.171.268.002.094.239.082.236-.012.362-.286.394-.33.031-.046.096-.102.013-.092zm.498-.302s-.375-.37-.717-.355c-.301.003-.089.107.094.259.225.171.475.14.534.14.06 0 .128-.004.09-.044zm-.014-.664s.371 0 .646.502c.119.212-.052.147-.052.147s-.453-.103-.661-.575c-.03-.081.066-.074.067-.074zm-.196 1.694s.404-.221.46-.663c.026-.174-.089-.073-.089-.073s-.412.234-.428.673c0 0-.013.093.057.063zm.73.278s.443-.283.486-.733c.034-.195-.1-.086-.1-.086s-.446.252-.45.746c0 0-.012.105.064.073zm.966-1.161s-.004-.578-.363-.817c-.142-.11-.12.038-.12.05 0 .012-.03.509.386.782 0 0 .082.066.097-.015zm2.12-.035s-.282-.443-.683-.406c-.23-.014-.007.2-.007.2s.205.276.616.28l.023.012c.409.229 1.537-.22 2.102-.007.973.332 1.178.84 1.292.95.033.035.061.025.073.006.013-.025.001-.05.001-.05-.282-.486-.884-.821-1.17-.935-.323-.115-.605-.17-1.306-.037-.614.102-.888.027-.924.016a.075.075 0 0 0-.016-.03zm-.153.195s-.459.007-.657.238c-.198.23-.018.113.215.108.275-.029.396-.216.432-.254.036-.039.058-.08.01-.092zm.763-.005s-.475.073-.647.34c-.171.268.002.094.239.082.237-.012.362-.286.394-.33.032-.046.096-.102.014-.092zm.498-.302s-.376-.37-.718-.355c-.301.003-.088.107.094.259.225.171.475.14.535.14.059 0 .127-.004.089-.044zm-.015-.664s.371 0 .646.502c.119.212-.052.147-.052.147s-.453-.103-.661-.575c-.03-.081.067-.074.067-.074zm-.196 1.694s.404-.221.46-.663c.027-.174-.088-.073-.088-.073s-.412.234-.429.673c0 0-.013.093.057.063zm.73.278s.443-.283.487-.733c.033-.195-.1-.086-.1-.086s-.447.252-.451.746c0 0-.012.105.064.073zm.966-1.161s-.003-.578-.363-.817c-.141-.11-.12.038-.12.05.001.012-.03.509.386.782 0 0 .082.066.097-.015zm2.12-.035s-.281-.443-.682-.406c-.23-.014-.008.2-.008.2s.206.276.616.28l.024.012c.408.229 1.537-.22 2.101-.007.973.332 1.178.84 1.292.95.033.035.061.025.073.006.014-.025.002-.05.002-.05-.283-.486-.884-.821-1.17-.935-.323-.115-.605-.17-1.307-.037-.615.103-.889.027-.924.016-.004-.016-.016-.03-.016-.03zm-.153.195s-.459.007-.657.238c-.198.23-.018.113.215.108.275-.029.396-.216.432-.254.036-.039.058-.08.01-.092zm.763-.005s-.475.073-.646.34c-.172.268.001.094.238.082.237-.012.362-.286.394-.33.032-.046.097-.102.014-.092zm.498-.302s-.376-.37-.718-.355c-.3.003-.088.107.094.259.225.171.476.14.535.14.06 0 .127-.004.089-.044zm-.015-.664s.372 0 .646.502c.12.212-.052.147-.052.147s-.453-.103-.66-.575c-.03-.081.066-.074.066-.074zm-.195 1.694s.404-.221.46-.663c.026-.174-.09-.073-.09-.073s-.411.234-.428.673c0 0-.013.093.058.063zm.73.278s.442-.283.486-.733c.034-.195-.1-.086-.1-.086s-.446.252-.451.746c0 0-.012.105.065.073zm.965-1.161s-.003-.578-.362-.817c-.142-.11-.121.038-.12.05 0 .012-.03.509.386.782 0 0 .081.066.096-.015zm2.121-.035s-.282-.443-.683-.406c-.23-.014-.008.2-.008.2s.206.276.616.28l.024.012c.408.229 1.537-.22 2.101-.007.973.332 1.178.84 1.292.95.034.035.061.025.074.006.013-.025 0-.05 0-.05-.281-.486-.883-.821-1.169-.935-.323-.115-.605-.17-1.307-.037-.614.103-.888.027-.924.016-.003-.016-.016-.03-.016-.03zm-.153.195s-.46.007-.658.238c-.198.23-.017.113.215.108.275-.029.396-.216.432-.254.036-.039.058-.08.01-.092zm.762-.005s-.475.073-.646.34c-.172.268.002.094.238.082.237-.012.363-.286.394-.33.032-.046.097-.102.014-.092zm.498-.302s-.376-.37-.717-.355c-.302.003-.089.107.093.259.226.171.476.14.535.14.06 0 .127-.004.09-.044zm-.015-.664s.372 0 .646.502c.12.212-.052.147-.052.147s-.453-.103-.66-.575c-.03-.081.066-.074.066-.074zm-.195 1.694s.404-.221.46-.663c.026-.174-.089-.073-.089-.073s-.412.234-.428.673c0 0-.014.093.057.063zm.73.278s.443-.283.486-.733c.034-.195-.1-.086-.1-.086s-.446.252-.451.746c0 0-.012.105.065.073zm.965-1.161s-.003-.578-.362-.817c-.142-.11-.121.038-.12.05 0 .012-.03.509.386.782 0 0 .081.066.096-.015zm2.121-.035s-.282-.443-.683-.406c-.23-.014-.007.2-.007.2s.205.276.616.28l.023.012c.408.229 1.537-.22 2.102-.007.972.332 1.178.84 1.292.95.033.035.06.025.073.006.013-.025.001-.05.001-.05-.282-.486-.884-.821-1.17-.935-.323-.115-.605-.17-1.307-.037-.613.102-.887.027-.924.016-.003-.016-.016-.03-.016-.03zm-.153.195s-.46.007-.657.238c-.198.23-.018.113.215.108.275-.029.395-.216.431-.254.037-.039.059-.08.01-.092zm.762-.005s-.474.073-.646.34c-.171.268.002.094.239.082.237-.012.362-.286.394-.33.032-.046.096-.102.013-.092zm.498-.302s-.375-.37-.717-.355c-.301.003-.089.107.094.259.225.171.475.14.534.14.06 0 .128-.004.09-.044zm-.014-.664s.37 0 .645.502c.12.212-.051.147-.051.147s-.454-.103-.661-.575c-.03-.081.067-.074.067-.074zm-.196 1.694s.404-.221.46-.663c.026-.174-.089-.073-.089-.073s-.412.234-.428.673c0 0-.013.093.057.063zm.73.278s.443-.283.486-.733c.034-.195-.1-.086-.1-.086s-.446.252-.45.746c0 0-.012.105.064.073zm.966-1.161s-.004-.578-.363-.817c-.142-.11-.12.038-.12.05 0 .012-.03.509.386.782 0 0 .082.066.097-.015zm2.12-.035s-.282-.443-.683-.406c-.23-.014-.007.2-.007.2s.205.276.616.28l.023.012c.409.229 1.538-.22 2.102-.007.973.332 1.178.84 1.292.95.033.035.061.025.073.006.013-.025.001-.05.001-.05-.282-.486-.883-.821-1.17-.935-.323-.115-.605-.17-1.306-.037-.614.102-.888.027-.924.016a.075.075 0 0 0-.016-.03zm-.153.195s-.459.007-.657.238c-.198.23-.018.113.215.108.275-.029.396-.216.432-.254.036-.039.058-.08.01-.092zm.763-.005s-.475.073-.647.34c-.171.268.002.094.239.082.237-.012.362-.286.394-.33.032-.046.096-.102.014-.092zm.498-.302s-.376-.37-.718-.355c-.301.003-.088.107.094.259.225.171.475.14.534.14.06 0 .128-.004.09-.044zm-.015-.664s.371 0 .646.502c.119.212-.052.147-.052.147s-.453-.103-.661-.575c-.03-.081.067-.074.067-.074zm-.196 1.694s.404-.221.46-.663c.027-.174-.088-.073-.088-.073s-.412.234-.429.673c0 0-.013.093.057.063zm.73.278s.443-.283.486-.733c.034-.195-.1-.086-.1-.086s-.445.252-.45.746c0 0-.012.105.064.073zm.966-1.161s-.003-.578-.363-.817c-.141-.11-.12.038-.12.05.001.012-.03.509.386.782 0 0 .082.066.097-.015zm2.121-.035s-.282-.443-.683-.406c-.23-.014-.008.2-.008.2s.206.276.616.28l.024.012c.408.229 1.537-.22 2.101-.007.973.332 1.178.84 1.292.95.033.035.061.025.074.006.013-.025 0-.05 0-.05-.282-.486-.883-.821-1.169-.935-.323-.115-.605-.17-1.307-.037-.613.102-.888.027-.924.016-.004-.016-.016-.03-.016-.03zm-.154.195s-.459.007-.657.238c-.198.23-.018.113.215.108.275-.029.396-.216.432-.254.036-.039.058-.08.01-.092zm.763-.005s-.475.073-.646.34c-.172.268.001.094.238.082.237-.012.362-.286.394-.33.032-.046.097-.102.014-.092zm.498-.302s-.376-.37-.718-.355c-.3.003-.088.107.094.259.225.171.476.14.535.14.06 0 .127-.004.089-.044zm-.015-.664s.371 0 .646.502c.12.212-.052.147-.052.147s-.453-.103-.66-.575c-.03-.081.066-.074.066-.074zm-.195 1.694s.404-.221.46-.663c.026-.174-.09-.073-.09-.073s-.411.234-.428.673c0 0-.013.093.058.063zm.73.278s.442-.283.486-.733c.034-.195-.1-.086-.1-.086s-.446.252-.451.746c0 0-.012.105.065.073z"/><path d="M48.655 5.508l.276 6.541 1.759-3.635c-.186-.416-.153-4.01 2.928-5.253.494-.223.225-.669.096-.797-.14-.119.46-.279.483.797.031 1.465.545 4.874-2.73 5.511-2.451 5.248-1.51 4.81-1.51 4.81s1.381-1.273 2.505-1.655c.84-.385 1.081-.32 1.893-.254 1.053.152 1.767.7 2.41.444.642-.254 1.894-.733 3.146.542 1.252 1.274 1.606 1.689 2.183 1.401.578-.286.256.925-2.536 1.148-2.798.206-3.339-2.071-3.339-2.103 0 0-4.976-1.72-6.037 4.206-.174.802.328.426.328.426s3.032-2.313 5.27-1.51c.246.088.475.277.726.328.641.13 1.024-.763 1.024-.763.02-.036.348-.565 1.184-.11.679.486.433.79 1.292 1.278-.053-.003-.506.335-1.712-.46-.36-.24-.726-.129-1.208.555 0 .415.417 1.083.032 2.836 0 0 3.018.127 3.114 3.345.096 3.217-.61 2.612-.61 2.612s.684-.457-.237-.876c-.931-.224-2.717-2.12-2.428-3.903-.111-.386-.607.581-.798.931.145.136.26.317.31.552.189.887-.524 1.806-.656 2.075-.13.267-.523.678-1.112.496-.169-.141-.358 0-.358 0s-.539.255-.925-.296c-.125-.177-.287-.39-.433-.638-.325-.556-.453-1.148-.287-1.798.146-.572.51-.898 1.194-.775.178.097.39.054.39.054 0 .014-.117.085-.197.115s-.003.063.098.103c.11.027.186.077.557-.054.116-.063.026-.08-.022-.083-.153-.033-.142-.058-.142-.058s.183.055.394-.039c.094-.042.366-.044.654.046l.017-.025c.313-.932 2.299-4.405-.751-4.588-1.597.227-2.697.94-3.425 1.789-.427.497-.8 1.102-.978 1.735-.141.504-.124.897-.121 1.504.01 2.613.108 8.999.786 10.805.14.391.316.73.527 1.015.21.284.468.525.77.721.235.217.695.398.94.415v.952H42.932v-.952c.245-.017.705-.198.94-.415.302-.196.56-.437.77-.721.211-.286.386-.624.527-1.015.708-1.887.783-8.773.787-11.133.002-.708-.037-1.103-.353-1.763-.617-1.29-1.885-2.612-4.172-2.937-3.05.183-1.064 3.656-.751 4.588l.017.025c.289-.09.56-.088.654-.046.21.094.394.04.394.04s.011.024-.142.057c-.047.004-.138.02-.022.083.372.131.448.08.557.054.102-.04.178-.074.098-.103-.08-.03-.196-.101-.196-.115 0 0 .206.054.39-.054.874-.157 1.108.517 1.108.517.497 1.263-.25 2.145-.635 2.694-.386.551-.925.296-.925.296s-.19-.141-.358 0c-.589.182-.982-.229-1.112-.496-.132-.27-.845-1.188-.656-2.075.05-.235.165-.416.31-.552-.191-.35-.687-1.317-.798-.93.289 1.783-1.496 3.678-2.428 3.902-.92.42-.237.876-.237.876s-.706.605-.61-2.612c.096-3.218 3.114-3.345 3.114-3.345-.385-1.753.032-2.421.032-2.836-.482-.684-.848-.795-1.207-.555-1.207.795-1.66.457-1.713.46.86-.487.614-.792 1.292-1.279.836-.454 1.185.111 1.185.111s.499 1.166 1.313.64c2.256-1.327 5.707 1.305 5.706 1.305 0 0 .502.376.328-.426-1.06-5.927-6.037-4.206-6.037-4.206s-.545 2.325-3.339 2.103c-2.792-.223-3.114-1.434-2.536-1.148.578.288.932-.127 2.183-1.401 1.252-1.275 2.505-.796 3.147-.542.642.255 1.357-.292 2.41-.444.81-.065 1.052-.13 1.892.254 1.124.382 2.504 1.656 2.504 1.656s.943.437-1.509-4.81c-3.275-.638-2.761-4.047-2.73-5.512.024-1.076.623-.916.483-.797-.13.128-.398.574.096.797 3.082 1.242 3.115 4.837 2.928 5.253l1.76 3.635.276-6.552c-.38-.062-.636-.356-.74-.567-.14-.289-.904-1.273-.702-2.222.204-.95 1.38-1.063 1.605-.962.226.1.422.042.422.042s.012.026-.152.061c-.05.004-.148.022-.023.09.398.14.48.086.596.057.11-.042.191-.079.105-.11-.085-.033-.21-.109-.21-.123 0 0 .221.057.417-.059.937-.168 1.188.555 1.188.555.532 1.352-.267 2.296-.68 2.885-.281.401-.638.404-.838.364zm.973-5.5c-1.69.24-1.284 1.642-1.284 1.642 1.58-.196 1.284-1.642 1.284-1.642zM43.03 19.932c-1.578.224-1.2 1.533-1.2 1.533 1.475-.183 1.2-1.533 1.2-1.533zm-3.768-14.08s-.3 1.47 1.307 1.67c0 0 .411-1.426-1.307-1.67zm1.162 5.54c.043-.015.12-.114.39 0 .642.198 1.127-.264 1.295-.54.177-.29.837-1.293.63-2.258-.207-.964-1.402-1.08-1.632-.978-.23.102-.428.043-.428.043s-.013.027.154.062c.051.004.151.023.025.092-.406.142-.489.088-.607.058-.111-.043-.195-.08-.107-.113.086-.033.213-.11.213-.124 0 0-.235.026-.424-.06-.886-.219-1.207.564-1.207.564-.54 1.375.272 2.335.691 2.933.421.6.965.338 1.007.322zm-2.045-.363s-1.529-2.393-3.625-1.376c.047-.1.914 2.071 3.625 1.376zm-.527-1.468s.425-2.14-1.288-2.675c-.068-.02-.595 1.637 1.288 2.675zm3.594-3.665s-.045-2.055-1.73-2.205c0 0-.216 1.627 1.73 2.205zm-6.668 9.28s-1.977-1.103-2.684 1.012c0 0 1.48 1.2 2.684-1.012zm-.037 1.029s-.226 1.11.986 1.26c0 0 .31-1.076-.986-1.26zm-.547 2.256c-.069.76.391 1.314.651 1.685.318.453.76.243.76.243s.156-.116.295 0c.484.15.807-.188.914-.408.108-.22.694-.976.539-1.705-.156-.728-1.059-.816-1.232-.738-.173.077-.324.032-.324.032s-.009.02.117.047c.039.003.113.017.018.07-.306.107-.368.065-.458.043-.083-.033-.147-.06-.08-.085a.521.521 0 0 0 .16-.094s-.169.044-.32-.045c-.392-.07-.628.064-.761.2-.187.19-.255.5-.279.755zm19.097 1.471s-.275 1.35 1.2 1.533c0 0 .378-1.31-1.2-1.533zm3.768-14.08c-1.718.244-1.306 1.67-1.306 1.67 1.606-.2 1.306-1.67 1.306-1.67zm-1.162 5.54c-.043-.015-.12-.114-.39 0-.641.198-1.127-.264-1.295-.54-.177-.29-.837-1.293-.63-2.258.207-.964 1.402-1.08 1.633-.978.229.102.428.043.428.043s.012.027-.155.062c-.051.004-.15.023-.024.092.405.142.488.088.607.058.11-.043.194-.08.107-.113-.087-.033-.214-.11-.214-.124 0 0 .236.026.424-.06.886-.219 1.207.564 1.207.564.541 1.375-.271 2.335-.691 2.933-.42.6-.964.338-1.007.322zm2.045-.363s1.529-2.393 3.625-1.376c.026.031-.914 2.071-3.625 1.376zm.527-1.468s-.349-1.757.861-2.485a1.876 1.876 0 0 1 .428-.19c.063-.019.594 1.637-1.289 2.675zm-3.594-3.665s.045-2.055 1.73-2.205c0 0 .216 1.627-1.73 2.205zm6.669 9.28s1.976-1.103 2.683 1.012c0 0-1.48 1.2-2.683-1.012zm.036 1.029c-1.297.184-.986 1.26-.986 1.26 1.212-.15.986-1.26.986-1.26zm.418 1.726c.409 1.038-.205 1.763-.522 2.215-.318.453-.76.243-.76.243s-.156-.116-.295 0c-.483.15-.806-.188-.914-.408-.108-.22-.694-.976-.538-1.705.155-.728 1.058-.816 1.232-.738.173.077.323.032.323.032s.01.02-.117.047c-.039.003-.113.017-.018.07.306.107.368.065.458.043.084-.033.147-.06.08-.085a.522.522 0 0 1-.16-.094s.169.044.32-.045c.718-.129.91.426.91.425z"/></g></svg>